<svg xmlns="http://www.w3.org/2000/svg" xmlns:xlink="http://www.w3.org/1999/xlink" width="1024" zoomAndPan="magnify" viewBox="0 0 768 767.999994" height="1024" preserveAspectRatio="xMidYMid meet" version="1.0"><defs><clipPath id="196d6d13ea"><path d="M 417 46.777344 L 599 46.777344 L 599 86 L 417 86 Z M 417 46.777344 " clip-rule="nonzero"/></clipPath><clipPath id="93f556e8aa"><path d="M 122 592 L 256 592 L 256 721.027344 L 122 721.027344 Z M 122 592 " clip-rule="nonzero"/></clipPath><clipPath id="092be8c5f8"><path d="M 626 586 L 760 586 L 760 721.027344 L 626 721.027344 Z M 626 586 " clip-rule="nonzero"/></clipPath></defs><path fill="#ffffff" d="M 414.21875 274.355469 C 414.21875 277.800781 411.429688 280.597656 407.976562 280.597656 L 380.335938 280.597656 C 365.980469 321.320312 364.914062 357.734375 377.257812 388.941406 C 398 441.359375 455.949219 477.082031 524.886719 479.960938 C 528.117188 480.089844 530.945312 482.90625 531.09375 486.128906 L 536.980469 592.289062 C 537.519531 601.808594 544.304688 609.765625 553.128906 611.1875 C 559.105469 612.160156 564.890625 610.527344 569.355469 606.5625 C 573.753906 602.652344 576.132812 597.046875 575.875 591.164062 L 573.078125 526.769531 C 573.078125 526.75 573.078125 526.734375 573.078125 526.714844 L 569.863281 452.730469 C 554.671875 440.171875 538.457031 428.664062 521.617188 418.496094 C 503.316406 407.4375 484.003906 397.789062 464.210938 389.796875 C 463.839844 389.652344 463.496094 389.472656 463.167969 389.261719 C 462.222656 388.65625 461.367188 387.707031 460.867188 386.699219 C 460.308594 385.582031 460.074219 384.191406 460.238281 382.949219 L 467.394531 289.796875 L 441.039062 272.230469 C 438.164062 270.3125 437.390625 266.441406 439.308594 263.570312 C 441.210938 260.703125 445.101562 259.917969 447.96875 261.839844 L 490.222656 290.011719 L 573.726562 290.011719 C 574.707031 290.011719 575.675781 289.875 576.636719 289.726562 C 572.433594 285.910156 569.742188 280.453125 569.742188 274.339844 C 569.742188 267.359375 573.222656 261.203125 578.496094 257.421875 C 577.804688 257.277344 577.125 257.089844 576.414062 257.035156 L 502.628906 251.359375 C 500.105469 251.164062 497.738281 249.296875 496.957031 246.886719 C 493.90625 237.015625 489.308594 227.847656 483.296875 219.570312 C 479.621094 214.511719 475.324219 209.90625 470.683594 205.664062 C 466.382812 206.46875 461.96875 206.9375 457.441406 206.9375 C 448.03125 206.9375 439.066406 205.070312 430.816406 201.773438 C 421.15625 210.996094 412.527344 220.929688 405.085938 231.578125 L 415.300781 231.578125 C 418.753906 231.578125 421.542969 234.375 421.542969 237.820312 C 421.542969 241.265625 418.753906 244.066406 415.300781 244.066406 L 397.113281 244.066406 C 392.566406 251.777344 388.539062 259.785156 385.097656 268.105469 L 407.96875 268.105469 C 411.429688 268.109375 414.21875 270.90625 414.21875 274.355469 Z M 414.21875 274.355469 " fill-opacity="1" fill-rule="nonzero"/><path fill="#ffffff" d="M 457.421875 194.464844 C 490.226562 194.464844 516.914062 167.769531 516.914062 134.957031 C 516.914062 121.472656 512.292969 108.464844 503.945312 97.964844 L 410.960938 97.964844 C 402.464844 108.535156 397.929688 121.246094 397.929688 134.957031 C 397.925781 167.769531 424.617188 194.464844 457.421875 194.464844 Z M 457.421875 194.464844 " fill-opacity="1" fill-rule="nonzero"/><path fill="#ffffff" d="M 223.050781 407.097656 C 219.535156 408.898438 211.21875 413.972656 209.796875 422.285156 C 209.515625 423.925781 209.46875 425.476562 209.65625 427.015625 C 211.625 442.902344 239.964844 460.140625 283.996094 461.476562 L 436.3125 469.21875 C 409.769531 455.089844 388.214844 435.152344 374.242188 411.050781 C 349.753906 402.480469 324.226562 397.894531 298.316406 397.496094 C 264.472656 396.960938 240.054688 398.375 223.050781 407.097656 Z M 223.050781 407.097656 " fill-opacity="1" fill-rule="nonzero"/><path fill="#ffffff" d="M 202.046875 441.316406 L 78.222656 441.316406 L 78.222656 458.054688 L 220.515625 458.054688 C 212.40625 453.265625 206.0625 447.617188 202.046875 441.316406 Z M 202.046875 441.316406 " fill-opacity="1" fill-rule="nonzero"/><path fill="#ffffff" d="M 181.542969 375.566406 L 110.730469 375.566406 L 101.332031 428.828125 L 197.320312 428.828125 C 197.308594 428.726562 197.269531 428.632812 197.257812 428.535156 C 196.921875 425.800781 196.996094 422.976562 197.480469 420.160156 C 199.160156 410.402344 206.40625 401.578125 217.355469 395.980469 C 235.792969 386.53125 260.933594 384.882812 286.3125 384.894531 L 298.269531 317.117188 L 121.042969 317.117188 L 119.382812 326.546875 L 159.636719 326.546875 C 163.089844 326.546875 165.882812 329.34375 165.882812 332.789062 C 165.882812 336.238281 163.089844 339.035156 159.636719 339.035156 L 117.179688 339.035156 L 112.941406 363.074219 L 181.546875 363.074219 C 185 363.074219 187.792969 365.871094 187.792969 369.316406 C 187.792969 372.765625 184.996094 375.566406 181.542969 375.566406 Z M 181.542969 375.566406 " fill-opacity="1" fill-rule="nonzero"/><path fill="#ffffff" d="M 226.429688 646.933594 C 226.429688 648.308594 226.367188 649.679688 226.246094 651.046875 C 226.128906 652.414062 225.945312 653.773438 225.707031 655.121094 C 225.464844 656.46875 225.167969 657.800781 224.8125 659.117188 C 224.453125 660.433594 224.039062 661.726562 223.566406 662.996094 C 223.097656 664.265625 222.570312 665.507812 221.992188 666.71875 C 221.410156 667.929688 220.777344 669.109375 220.09375 670.25 C 219.410156 671.394531 218.679688 672.496094 217.898438 673.558594 C 217.117188 674.621094 216.292969 675.640625 215.421875 676.613281 C 214.550781 677.585938 213.640625 678.507812 212.6875 679.378906 C 211.738281 680.25 210.75 681.066406 209.726562 681.832031 C 208.703125 682.59375 207.648438 683.300781 206.5625 683.949219 C 205.476562 684.597656 204.367188 685.183594 203.230469 685.710938 C 202.089844 686.238281 200.933594 686.699219 199.757812 687.097656 C 198.578125 687.496094 197.386719 687.832031 196.179688 688.097656 C 194.972656 688.367188 193.753906 688.570312 192.53125 688.703125 C 191.304688 688.839844 190.078125 688.90625 188.847656 688.90625 C 187.617188 688.90625 186.386719 688.839844 185.164062 688.703125 C 183.9375 688.570312 182.722656 688.367188 181.515625 688.097656 C 180.308594 687.832031 179.113281 687.496094 177.9375 687.097656 C 176.757812 686.699219 175.601562 686.238281 174.464844 685.710938 C 173.328125 685.183594 172.214844 684.597656 171.128906 683.949219 C 170.046875 683.300781 168.992188 682.59375 167.96875 681.832031 C 166.945312 681.066406 165.957031 680.25 165.003906 679.378906 C 164.054688 678.507812 163.144531 677.585938 162.273438 676.613281 C 161.402344 675.640625 160.578125 674.621094 159.796875 673.558594 C 159.015625 672.496094 158.28125 671.394531 157.597656 670.25 C 156.914062 669.109375 156.28125 667.929688 155.703125 666.71875 C 155.121094 665.507812 154.597656 664.265625 154.125 662.996094 C 153.65625 661.726562 153.242188 660.433594 152.882812 659.117188 C 152.527344 657.800781 152.226562 656.46875 151.988281 655.121094 C 151.746094 653.773438 151.566406 652.414062 151.445312 651.046875 C 151.324219 649.679688 151.265625 648.308594 151.265625 646.933594 C 151.265625 645.558594 151.324219 644.1875 151.445312 642.820312 C 151.566406 641.453125 151.746094 640.09375 151.988281 638.746094 C 152.226562 637.398438 152.527344 636.066406 152.882812 634.75 C 153.242188 633.433594 153.65625 632.140625 154.125 630.871094 C 154.597656 629.601562 155.121094 628.359375 155.703125 627.148438 C 156.28125 625.9375 156.914062 624.757812 157.597656 623.617188 C 158.28125 622.472656 159.015625 621.371094 159.796875 620.308594 C 160.578125 619.246094 161.402344 618.226562 162.273438 617.253906 C 163.144531 616.285156 164.054688 615.363281 165.003906 614.488281 C 165.957031 613.617188 166.945312 612.800781 167.96875 612.035156 C 168.992188 611.273438 170.046875 610.566406 171.128906 609.917969 C 172.214844 609.269531 173.328125 608.683594 174.464844 608.15625 C 175.601562 607.632812 176.757812 607.167969 177.9375 606.769531 C 179.113281 606.371094 180.308594 606.035156 181.515625 605.769531 C 182.722656 605.5 183.9375 605.300781 185.164062 605.164062 C 186.386719 605.03125 187.617188 604.960938 188.847656 604.960938 C 190.078125 604.960938 191.304688 605.03125 192.53125 605.164062 C 193.753906 605.300781 194.972656 605.5 196.179688 605.769531 C 197.386719 606.035156 198.578125 606.371094 199.757812 606.769531 C 200.933594 607.167969 202.089844 607.632812 203.230469 608.15625 C 204.367188 608.683594 205.476562 609.269531 206.5625 609.917969 C 207.648438 610.566406 208.703125 611.273438 209.726562 612.035156 C 210.75 612.800781 211.738281 613.617188 212.6875 614.488281 C 213.640625 615.363281 214.550781 616.285156 215.421875 617.253906 C 216.292969 618.226562 217.117188 619.246094 217.898438 620.308594 C 218.679688 621.371094 219.410156 622.472656 220.09375 623.617188 C 220.777344 624.757812 221.410156 625.9375 221.992188 627.148438 C 222.570312 628.359375 223.097656 629.601562 223.566406 630.871094 C 224.039062 632.140625 224.453125 633.433594 224.8125 634.75 C 225.167969 636.066406 225.464844 637.398438 225.707031 638.746094 C 225.945312 640.09375 226.128906 641.453125 226.246094 642.820312 C 226.367188 644.1875 226.429688 645.558594 226.429688 646.933594 Z M 226.429688 646.933594 " fill-opacity="1" fill-rule="nonzero"/><g clip-path="url(#196d6d13ea)"><path fill="#ffffff" d="M 598.945312 77.109375 C 598.945312 72.496094 595.195312 68.742188 590.578125 68.742188 L 532.148438 68.742188 C 528.695312 68.742188 525.90625 65.945312 525.90625 62.5 L 525.90625 46.828125 L 434 46.828125 L 417.449219 85.476562 L 590.585938 85.476562 C 595.195312 85.476562 598.945312 81.722656 598.945312 77.109375 Z M 598.945312 77.109375 " fill-opacity="1" fill-rule="nonzero"/></g><path fill="#ffffff" d="M 401.734375 551.789062 C 402.457031 526.058594 388.703125 502.71875 374.746094 491 C 343.402344 464.6875 277.398438 474.300781 206.597656 515.492188 C 203.605469 517.214844 199.792969 516.21875 198.0625 513.238281 C 196.328125 510.253906 197.339844 506.433594 200.316406 504.703125 C 224.792969 490.46875 248.570312 479.914062 270.792969 473.074219 C 259.070312 471.867188 248.226562 469.53125 238.648438 466.261719 L 227.445312 470.199219 C 206.605469 478.375 187.605469 490.242188 171.175781 505.421875 C 159.636719 516.082031 150.578125 527.371094 143.296875 538.425781 L 232.671875 538.425781 C 236.125 538.425781 238.917969 541.21875 238.917969 544.671875 C 238.917969 548.125 236.125 550.914062 232.671875 550.914062 L 135.6875 550.914062 C 130.714844 559.957031 126.945312 568.589844 124.109375 576.285156 L 363.964844 617.519531 C 374.765625 609.496094 400.746094 586.65625 401.734375 551.789062 Z M 401.734375 551.789062 " fill-opacity="1" fill-rule="nonzero"/><path fill="#ffffff" d="M 628.773438 563.871094 C 639.300781 541.957031 647.617188 514.96875 642.773438 406.132812 C 641.59375 379.507812 639.914062 353.257812 637.769531 327.78125 L 625.550781 357.109375 C 624.582031 359.441406 622.304688 360.949219 619.789062 360.949219 L 611.429688 360.949219 L 611.429688 427.761719 C 611.429688 473.003906 606.046875 491.917969 596.113281 511.003906 C 593.097656 516.796875 589.523438 522.378906 585.601562 527.71875 L 588.339844 590.625 C 588.667969 598.238281 586.269531 605.550781 581.714844 611.460938 L 595.261719 611.460938 C 609.203125 597.164062 620.46875 581.160156 628.773438 563.871094 Z M 628.773438 563.871094 " fill-opacity="1" fill-rule="nonzero"/><path fill="#ffffff" d="M 692.835938 688.90625 C 713.558594 688.90625 730.425781 670.074219 730.425781 646.933594 C 730.425781 623.792969 713.566406 604.960938 692.835938 604.960938 C 672.117188 604.960938 655.253906 623.792969 655.253906 646.933594 C 655.253906 670.074219 672.117188 688.90625 692.835938 688.90625 Z M 692.835938 688.90625 " fill-opacity="1" fill-rule="nonzero"/><path fill="#ffffff" d="M 659.523438 589.195312 C 658.5625 591.824219 657.578125 594.480469 656.546875 597.144531 C 671.519531 587.167969 690.601562 578.324219 713.867188 575.003906 C 719.816406 574.160156 725.835938 573.863281 731.867188 573.8125 C 732.765625 573.628906 733.683594 573.613281 734.589844 573.832031 C 745.722656 573.957031 756.890625 575.246094 767.832031 578.011719 C 761.613281 568.679688 751.054688 557.148438 734.34375 550.460938 C 711.285156 541.222656 690.683594 546.667969 681.773438 549.992188 C 669.425781 562.371094 664.582031 575.410156 659.523438 589.195312 Z M 659.523438 589.195312 " fill-opacity="1" fill-rule="nonzero"/><path fill="#ffffff" d="M 626.039062 274.355469 C 626.039062 282.539062 621.253906 289.570312 614.375 292.980469 L 622.117188 318.804688 L 651.238281 278.03125 C 651.34375 277.882812 651.484375 277.769531 651.601562 277.632812 C 651.707031 277.507812 651.808594 277.394531 651.917969 277.28125 C 652.429688 276.765625 653.011719 276.339844 653.660156 276.035156 C 653.699219 276.015625 653.71875 275.984375 653.753906 275.972656 C 653.824219 275.941406 653.90625 275.953125 653.972656 275.921875 C 654.597656 275.664062 655.261719 275.503906 655.953125 275.464844 C 656.054688 275.460938 656.152344 275.429688 656.253906 275.429688 C 656.277344 275.429688 656.296875 275.421875 656.320312 275.421875 L 679.292969 275.421875 L 679.292969 229.464844 L 639.65625 229.464844 L 640.605469 237.058594 C 641.03125 240.480469 638.609375 243.601562 635.1875 244.027344 C 634.921875 244.058594 634.660156 244.078125 634.40625 244.078125 C 631.300781 244.078125 628.609375 241.765625 628.21875 238.609375 L 628.179688 238.289062 L 611.796875 254.679688 C 620.039062 257.453125 626.039062 265.175781 626.039062 274.355469 Z M 626.039062 274.355469 " fill-opacity="1" fill-rule="nonzero"/><path fill="#ffffff" d="M 605.191406 282.722656 C 609.796875 282.722656 613.550781 278.96875 613.550781 274.355469 C 613.550781 269.738281 609.796875 265.988281 605.191406 265.988281 L 590.578125 265.988281 C 585.964844 265.988281 582.210938 269.738281 582.210938 274.355469 C 582.210938 278.96875 585.964844 282.722656 590.578125 282.722656 Z M 605.191406 282.722656 " fill-opacity="1" fill-rule="nonzero"/><path fill="#ffffff" d="M 371.96875 667.289062 C 373.992188 671.117188 375.171875 675.71875 375.171875 680.738281 C 375.171875 684.167969 374.621094 687.40625 373.628906 690.335938 C 394.527344 687.507812 415.261719 683.21875 435.476562 677.453125 C 454.054688 672.160156 472.339844 665.621094 490.109375 657.929688 C 475.03125 658.578125 459.917969 659.421875 444.929688 660.46875 C 420.664062 662.15625 396.226562 664.535156 371.96875 667.289062 Z M 371.96875 667.289062 " fill-opacity="1" fill-rule="nonzero"/><path fill="#ffffff" d="M 355.757812 669.03125 C 352.492188 669.03125 348.835938 674.039062 348.835938 680.738281 C 348.835938 687.34375 352.386719 692.285156 355.621094 692.425781 C 355.878906 692.402344 356.132812 692.363281 356.390625 692.339844 C 359.480469 691.757812 362.691406 687.019531 362.691406 680.746094 C 362.683594 674.039062 359.023438 669.03125 355.757812 669.03125 Z M 355.757812 669.03125 " fill-opacity="1" fill-rule="nonzero"/><g clip-path="url(#93f556e8aa)"><path fill="#ffffff" d="M 221.433594 605.675781 C 232.109375 615.671875 238.910156 630.4375 238.910156 646.933594 C 238.910156 676.96875 216.449219 701.394531 188.839844 701.394531 C 161.230469 701.394531 138.769531 676.96875 138.769531 646.933594 C 138.769531 624.386719 151.433594 605 169.429688 596.738281 L 143.816406 592.335938 C 129.984375 606.375 122.035156 626.054688 122.035156 646.933594 C 122.035156 687.800781 152 721.050781 188.835938 721.050781 C 225.667969 721.050781 255.632812 687.800781 255.632812 646.933594 C 255.632812 633.878906 252.441406 621.214844 246.609375 610.007812 Z M 221.433594 605.675781 " fill-opacity="1" fill-rule="nonzero"/></g><path fill="#ffffff" d="M 354.992188 656.59375 C 384.460938 652.964844 414.425781 650.082031 444.058594 648.007812 C 449.910156 647.601562 455.8125 647.328125 461.691406 646.976562 L 261.625 612.585938 C 265.890625 623.371094 268.132812 635.039062 268.132812 646.933594 C 268.132812 656.824219 266.535156 666.289062 263.722656 675.148438 L 339.480469 667.425781 C 342.746094 661.152344 348.304688 657.050781 354.785156 656.660156 C 354.859375 656.648438 354.914062 656.597656 354.992188 656.59375 Z M 354.992188 656.59375 " fill-opacity="1" fill-rule="nonzero"/><g clip-path="url(#092be8c5f8)"><path fill="#ffffff" d="M 730.921875 586.167969 C 725.796875 586.253906 720.691406 586.644531 715.636719 587.367188 C 707.945312 588.464844 700.820312 590.308594 694.117188 592.550781 C 721.132812 593.296875 742.910156 617.375 742.910156 646.933594 C 742.910156 676.96875 720.445312 701.394531 692.835938 701.394531 C 665.226562 701.394531 642.765625 676.96875 642.765625 646.933594 C 642.765625 635.792969 645.871094 625.4375 651.164062 616.800781 C 647.898438 619.542969 644.859375 622.257812 642.234375 624.855469 C 641.304688 626.179688 640.367188 627.503906 639.332031 628.84375 C 635.449219 633.859375 631.027344 638.5 626.195312 642.835938 C 626.125 644.199219 626.03125 645.558594 626.03125 646.941406 C 626.03125 687.804688 655.996094 721.054688 692.828125 721.054688 C 729.664062 721.054688 759.625 687.804688 759.625 646.941406 C 759.632812 622.582031 748.894531 600.0625 730.921875 586.167969 Z M 730.921875 586.167969 " fill-opacity="1" fill-rule="nonzero"/></g><path fill="#ffffff" d="M 647.796875 584.886719 C 653.222656 570.109375 658.835938 554.824219 673.84375 540.21875 C 673.847656 540.214844 673.855469 540.207031 673.859375 540.195312 C 673.867188 540.1875 673.875 540.183594 673.878906 540.175781 C 683.40625 530.902344 694.957031 523.609375 708.265625 518.453125 C 705.625 473.554688 698.410156 428.859375 686.804688 385.546875 C 678.5 354.527344 667.714844 323.929688 654.941406 294.320312 L 648.136719 303.851562 C 651.300781 336.535156 653.707031 370.730469 655.253906 405.570312 C 659.773438 507.140625 653.394531 541.460938 640.03125 569.265625 C 630.765625 588.570312 618.066406 606.347656 602.300781 622.121094 C 601.125 623.292969 599.546875 623.949219 597.886719 623.949219 L 401.484375 623.949219 L 582.59375 655.082031 C 602.5625 646.957031 618.328125 635.558594 629.472656 621.183594 C 638.980469 608.921875 643.464844 596.707031 647.796875 584.886719 Z M 647.796875 584.886719 " fill-opacity="1" fill-rule="nonzero"/><path fill="#ffffff" d="M 524.519531 592.988281 L 524.226562 587.699219 C 515.691406 590.140625 507.171875 591.339844 498.988281 591.339844 C 477.207031 591.34375 457.785156 582.945312 446.714844 567.394531 C 437.796875 554.875 434.832031 537.617188 438.351562 518.796875 C 441.351562 502.8125 449.328125 490.84375 456.722656 482.75 L 379.179688 478.8125 C 380.378906 479.683594 381.640625 480.476562 382.769531 481.425781 C 397.835938 494.070312 415.113281 520.183594 414.214844 552.132812 C 413.476562 578.089844 401.007812 598.0625 388.953125 611.460938 L 531.460938 611.460938 C 527.492188 606.292969 524.90625 599.929688 524.519531 592.988281 Z M 524.519531 592.988281 " fill-opacity="1" fill-rule="nonzero"/><path fill="#ffffff" d="M 598.945312 179.382812 C 598.945312 191.839844 591.773438 202.363281 583.273438 202.363281 C 574.777344 202.363281 567.601562 191.835938 567.601562 179.382812 C 567.601562 166.933594 574.777344 156.40625 583.273438 156.40625 C 591.773438 156.40625 598.945312 166.925781 598.945312 179.382812 Z M 598.945312 179.382812 " fill-opacity="1" fill-rule="nonzero"/><path fill="#ffffff" d="M 618.953125 185.628906 L 621.585938 185.628906 L 624.726562 210.722656 C 625.121094 213.882812 627.8125 216.191406 630.914062 216.191406 C 631.171875 216.191406 631.433594 216.179688 631.695312 216.140625 C 635.117188 215.71875 637.546875 212.59375 637.113281 209.175781 L 633.292969 178.609375 C 632.902344 175.488281 630.246094 173.140625 627.101562 173.140625 L 618.953125 173.140625 C 615.5 173.140625 612.707031 175.9375 612.707031 179.382812 C 612.707031 182.832031 615.5 185.628906 618.953125 185.628906 Z M 618.953125 185.628906 " fill-opacity="1" fill-rule="nonzero"/><path fill="#ffffff" d="M 283.804688 83.351562 L 371.449219 83.351562 C 374.902344 83.351562 377.695312 80.554688 377.695312 77.109375 C 377.695312 73.664062 374.902344 70.867188 371.449219 70.867188 L 283.804688 70.867188 C 280.351562 70.867188 277.558594 73.664062 277.558594 77.109375 C 277.558594 80.554688 280.351562 83.351562 283.804688 83.351562 Z M 283.804688 83.351562 " fill-opacity="1" fill-rule="nonzero"/><path fill="#ffffff" d="M 137.722656 119.878906 L 364.144531 119.878906 C 367.597656 119.878906 370.386719 117.082031 370.386719 113.636719 C 370.386719 110.1875 367.597656 107.390625 364.144531 107.390625 L 137.722656 107.390625 C 134.269531 107.390625 131.476562 110.1875 131.476562 113.636719 C 131.476562 117.082031 134.269531 119.878906 137.722656 119.878906 Z M 137.722656 119.878906 " fill-opacity="1" fill-rule="nonzero"/><path fill="#ffffff" d="M 203.457031 187.75 C 200.003906 187.75 197.214844 190.546875 197.214844 193.996094 C 197.214844 197.441406 200.003906 200.238281 203.457031 200.238281 L 349.539062 200.238281 C 352.992188 200.238281 355.785156 197.441406 355.785156 193.996094 C 355.785156 190.546875 352.992188 187.75 349.539062 187.75 Z M 203.457031 187.75 " fill-opacity="1" fill-rule="nonzero"/><path fill="#ffffff" d="M 115.804688 244.070312 L 375.875 244.070312 C 379.328125 244.070312 382.121094 241.273438 382.121094 237.828125 C 382.121094 234.378906 379.328125 231.582031 375.875 231.582031 L 115.804688 231.582031 C 112.351562 231.582031 109.5625 234.378906 109.5625 237.828125 C 109.5625 241.273438 112.351562 244.070312 115.804688 244.070312 Z M 115.804688 244.070312 " fill-opacity="1" fill-rule="nonzero"/><path fill="#ffffff" d="M 359.703125 268.109375 L 232.671875 268.109375 C 229.21875 268.109375 226.429688 270.90625 226.429688 274.355469 C 226.429688 277.800781 229.21875 280.597656 232.671875 280.597656 L 359.710938 280.597656 C 363.164062 280.597656 365.957031 277.800781 365.957031 274.355469 C 365.957031 270.90625 363.15625 268.109375 359.703125 268.109375 Z M 359.703125 268.109375 " fill-opacity="1" fill-rule="nonzero"/><path fill="#ffffff" d="M 35.464844 339.039062 L 97.6875 339.039062 C 101.140625 339.039062 103.929688 336.242188 103.929688 332.796875 C 103.929688 329.351562 101.140625 326.554688 97.6875 326.554688 L 35.464844 326.554688 C 32.011719 326.554688 29.222656 329.351562 29.222656 332.796875 C 29.222656 336.242188 32.011719 339.039062 35.464844 339.039062 Z M 35.464844 339.039062 " fill-opacity="1" fill-rule="nonzero"/><path fill="#ffffff" d="M 97.59375 369.324219 C 97.59375 365.878906 94.800781 363.078125 91.347656 363.078125 L 57.367188 363.078125 C 53.917969 363.078125 51.125 365.878906 51.125 369.324219 C 51.125 372.769531 53.917969 375.566406 57.367188 375.566406 L 91.34375 375.566406 C 94.800781 375.566406 97.59375 372.777344 97.59375 369.324219 Z M 97.59375 369.324219 " fill-opacity="1" fill-rule="nonzero"/><path fill="#ffffff" d="M 115.804688 538.414062 L 86.589844 538.414062 C 83.136719 538.414062 80.347656 541.207031 80.347656 544.660156 C 80.347656 548.113281 83.136719 550.902344 86.589844 550.902344 L 115.804688 550.902344 C 119.257812 550.902344 122.050781 548.113281 122.050781 544.660156 C 122.050781 541.207031 119.257812 538.414062 115.804688 538.414062 Z M 115.804688 538.414062 " fill-opacity="1" fill-rule="nonzero"/><path fill="#ffffff" d="M 86.589844 626.078125 L 50.0625 626.078125 C 46.609375 626.078125 43.820312 628.871094 43.820312 632.324219 C 43.820312 635.777344 46.609375 638.566406 50.0625 638.566406 L 86.589844 638.566406 C 90.042969 638.566406 92.835938 635.777344 92.835938 632.324219 C 92.835938 628.871094 90.042969 626.078125 86.589844 626.078125 Z M 86.589844 626.078125 " fill-opacity="1" fill-rule="nonzero"/><path fill="#ffffff" d="M 50.070312 494.578125 C 46.617188 494.578125 43.824219 497.367188 43.824219 500.820312 C 43.824219 504.273438 46.617188 507.0625 50.070312 507.0625 L 108.5 507.0625 C 111.953125 507.0625 114.746094 504.273438 114.746094 500.820312 C 114.746094 497.367188 111.953125 494.578125 108.5 494.578125 Z M 50.070312 494.578125 " fill-opacity="1" fill-rule="nonzero"/><path fill="#ffffff" d="M 70.917969 405.851562 C 70.917969 402.398438 68.128906 399.605469 64.675781 399.605469 L 6.242188 399.605469 C 2.792969 399.605469 0 402.398438 0 405.851562 C 0 409.304688 2.792969 412.09375 6.242188 412.09375 L 64.675781 412.09375 C 68.128906 412.09375 70.917969 409.304688 70.917969 405.851562 Z M 70.917969 405.851562 " fill-opacity="1" fill-rule="nonzero"/></svg>