<svg xmlns="http://www.w3.org/2000/svg" xmlns:xlink="http://www.w3.org/1999/xlink" width="1024" zoomAndPan="magnify" viewBox="0 0 768 767.999994" height="1024" preserveAspectRatio="xMidYMid meet" version="1.0"><defs><clipPath id="17e5079eed"><path d="M 1 119.039062 L 767 119.039062 L 767 649.289062 L 1 649.289062 Z M 1 119.039062 " clip-rule="nonzero"/></clipPath></defs><g clip-path="url(#17e5079eed)"><path fill="#ffffff" d="M 503.269531 401.558594 L 403.84375 494.238281 C 392.550781 504.785156 375.015625 504.785156 363.707031 494.238281 L 271.144531 407.945312 L 53.488281 641.933594 C 64.242188 646.65625 76.128906 649.292969 88.640625 649.292969 C 88.640625 649.292969 678.925781 649.292969 678.925781 649.292969 C 691.664062 649.292969 703.769531 646.5625 714.683594 641.65625 Z M 11.488281 165.851562 L 228.097656 367.808594 L 10.703125 601.507812 C 4.628906 589.609375 1.21875 576.140625 1.21875 561.871094 C 1.21875 561.871094 1.21875 207 1.21875 207 C 1.21875 192.125 4.929688 178.117188 11.488281 165.851562 Z M 756.078125 165.851562 C 762.636719 178.117188 766.347656 192.125 766.347656 207 L 766.347656 561.867188 C 766.347656 575.878906 763.054688 589.125 757.179688 600.863281 L 546.332031 361.394531 Z M 712.320312 126.1875 L 383.777344 432.488281 L 55.246094 126.1875 C 65.527344 121.925781 76.808594 119.578125 88.640625 119.578125 C 88.640625 119.578125 678.925781 119.578125 678.925781 119.578125 C 690.757812 119.578125 702.039062 121.925781 712.320312 126.1875 Z M 712.320312 126.1875 " fill-opacity="1" fill-rule="evenodd"/></g></svg>