<svg xmlns="http://www.w3.org/2000/svg" xmlns:xlink="http://www.w3.org/1999/xlink" width="1024" zoomAndPan="magnify" viewBox="0 0 768 767.999994" height="1024" preserveAspectRatio="xMidYMid meet" version="1.0"><path fill="#ffffff" d="M 581.601562 768 L 188.433594 768 C 84.542969 768 1.019531 684.476562 1.019531 580.582031 L 1.019531 187.417969 C 1.019531 83.523438 84.542969 0 188.433594 0 L 579.566406 0 C 683.457031 0 766.980469 83.523438 766.980469 187.417969 L 766.980469 578.546875 C 766.980469 682.441406 683.457031 765.960938 579.566406 765.960938 Z M 188.433594 61.113281 C 119.171875 61.113281 62.132812 118.152344 62.132812 187.417969 L 62.132812 578.546875 C 62.132812 647.808594 119.171875 704.847656 188.433594 704.847656 L 579.566406 704.847656 C 648.828125 704.847656 705.867188 647.808594 705.867188 578.546875 L 705.867188 187.417969 C 705.867188 118.152344 648.828125 61.113281 579.566406 61.113281 Z M 188.433594 61.113281 " fill-opacity="1" fill-rule="nonzero"/><path fill="#ffffff" d="M 386.039062 631.511719 C 251.585938 631.511719 143.617188 523.542969 143.617188 389.09375 C 143.617188 254.640625 251.585938 146.671875 386.039062 146.671875 C 520.488281 146.671875 628.457031 254.640625 628.457031 389.09375 C 628.457031 523.542969 520.488281 631.511719 386.039062 631.511719 Z M 386.039062 205.75 C 284.179688 205.75 202.695312 287.234375 202.695312 389.09375 C 202.695312 490.949219 284.179688 572.433594 386.039062 572.433594 C 487.894531 572.433594 569.378906 490.949219 569.378906 389.09375 C 569.378906 287.234375 487.894531 205.75 386.039062 205.75 Z M 386.039062 205.75 " fill-opacity="1" fill-rule="nonzero"/><path fill="#ffffff" d="M 386.039062 499.097656 C 324.921875 499.097656 276.03125 450.207031 276.03125 389.09375 C 276.03125 327.980469 324.921875 279.085938 386.039062 279.085938 C 447.152344 279.085938 496.042969 327.980469 496.042969 389.09375 C 496.042969 450.207031 447.152344 499.097656 386.039062 499.097656 Z M 386.039062 340.203125 C 359.554688 340.203125 337.144531 362.609375 337.144531 389.09375 C 337.144531 415.574219 359.554688 437.984375 386.039062 437.984375 C 412.519531 437.984375 434.929688 415.574219 434.929688 389.09375 C 434.929688 362.609375 412.519531 340.203125 386.039062 340.203125 Z M 386.039062 340.203125 " fill-opacity="1" fill-rule="nonzero"/><path fill="#ffffff" d="M 648.828125 160.933594 C 648.828125 162.269531 648.761719 163.597656 648.632812 164.925781 C 648.5 166.253906 648.304688 167.574219 648.042969 168.882812 C 647.785156 170.191406 647.460938 171.484375 647.074219 172.761719 C 646.6875 174.039062 646.238281 175.292969 645.726562 176.523438 C 645.214844 177.757812 644.644531 178.960938 644.015625 180.140625 C 643.386719 181.316406 642.703125 182.460938 641.960938 183.570312 C 641.21875 184.679688 640.425781 185.75 639.578125 186.78125 C 638.734375 187.8125 637.835938 188.800781 636.894531 189.742188 C 635.949219 190.6875 634.964844 191.582031 633.933594 192.429688 C 632.898438 193.273438 631.828125 194.070312 630.71875 194.808594 C 629.609375 195.550781 628.46875 196.238281 627.289062 196.867188 C 626.113281 197.496094 624.910156 198.0625 623.675781 198.574219 C 622.445312 199.085938 621.1875 199.535156 619.910156 199.921875 C 618.636719 200.308594 617.34375 200.632812 616.035156 200.894531 C 614.722656 201.152344 613.40625 201.347656 612.078125 201.480469 C 610.75 201.609375 609.417969 201.675781 608.085938 201.675781 C 606.75 201.675781 605.417969 201.609375 604.089844 201.480469 C 602.761719 201.347656 601.445312 201.152344 600.136719 200.894531 C 598.828125 200.632812 597.535156 200.308594 596.257812 199.921875 C 594.980469 199.535156 593.726562 199.085938 592.492188 198.574219 C 591.261719 198.0625 590.054688 197.496094 588.878906 196.867188 C 587.703125 196.238281 586.558594 195.550781 585.449219 194.808594 C 584.339844 194.070312 583.269531 193.273438 582.238281 192.429688 C 581.207031 191.582031 580.21875 190.6875 579.273438 189.742188 C 578.332031 188.800781 577.4375 187.8125 576.589844 186.78125 C 575.742188 185.75 574.949219 184.679688 574.207031 183.570312 C 573.46875 182.460938 572.78125 181.316406 572.152344 180.140625 C 571.523438 178.960938 570.953125 177.757812 570.445312 176.523438 C 569.933594 175.292969 569.484375 174.039062 569.097656 172.761719 C 568.710938 171.484375 568.386719 170.191406 568.125 168.882812 C 567.863281 167.574219 567.667969 166.253906 567.539062 164.925781 C 567.40625 163.597656 567.34375 162.269531 567.34375 160.933594 C 567.34375 159.597656 567.40625 158.269531 567.539062 156.941406 C 567.667969 155.613281 567.863281 154.292969 568.125 152.984375 C 568.386719 151.675781 568.710938 150.382812 569.097656 149.105469 C 569.484375 147.828125 569.933594 146.574219 570.441406 145.34375 C 570.953125 144.109375 571.523438 142.90625 572.152344 141.726562 C 572.78125 140.550781 573.46875 139.40625 574.207031 138.296875 C 574.949219 137.1875 575.742188 136.117188 576.589844 135.085938 C 577.4375 134.054688 578.332031 133.066406 579.273438 132.125 C 580.21875 131.179688 581.207031 130.285156 582.238281 129.4375 C 583.269531 128.59375 584.339844 127.796875 585.449219 127.058594 C 586.558594 126.316406 587.703125 125.628906 588.878906 125 C 590.054688 124.371094 591.261719 123.804688 592.492188 123.292969 C 593.726562 122.78125 594.980469 122.332031 596.257812 121.945312 C 597.535156 121.558594 598.828125 121.234375 600.136719 120.972656 C 601.445312 120.714844 602.761719 120.519531 604.089844 120.386719 C 605.417969 120.257812 606.75 120.191406 608.085938 120.191406 C 609.417969 120.191406 610.75 120.257812 612.078125 120.386719 C 613.40625 120.519531 614.722656 120.714844 616.035156 120.972656 C 617.34375 121.234375 618.636719 121.558594 619.910156 121.945312 C 621.1875 122.332031 622.445312 122.78125 623.675781 123.292969 C 624.910156 123.804688 626.113281 124.371094 627.289062 125 C 628.46875 125.628906 629.609375 126.316406 630.71875 127.058594 C 631.828125 127.796875 632.898438 128.59375 633.933594 129.4375 C 634.964844 130.285156 635.949219 131.179688 636.894531 132.125 C 637.835938 133.066406 638.734375 134.054688 639.578125 135.085938 C 640.425781 136.117188 641.21875 137.1875 641.960938 138.296875 C 642.703125 139.40625 643.386719 140.550781 644.015625 141.726562 C 644.644531 142.90625 645.214844 144.109375 645.726562 145.34375 C 646.238281 146.574219 646.6875 147.828125 647.074219 149.105469 C 647.460938 150.382812 647.785156 151.675781 648.042969 152.984375 C 648.304688 154.292969 648.5 155.613281 648.632812 156.941406 C 648.761719 158.269531 648.828125 159.597656 648.828125 160.933594 Z M 648.828125 160.933594 " fill-opacity="1" fill-rule="nonzero"/></svg>