<svg xmlns="http://www.w3.org/2000/svg" xmlns:xlink="http://www.w3.org/1999/xlink" width="1024" zoomAndPan="magnify" viewBox="0 0 768 767.999994" height="1024" preserveAspectRatio="xMidYMid meet" version="1.0"><defs><clipPath id="4ffa4d423d"><path d="M 115.199219 0 L 652.949219 0 L 652.949219 768 L 115.199219 768 Z M 115.199219 0 " clip-rule="nonzero"/></clipPath></defs><g clip-path="url(#4ffa4d423d)"><path fill="#ffffff" d="M 384 0 C 235.582031 0 115.199219 120.386719 115.199219 268.800781 C 115.199219 470.398438 384 768 384 768 C 384 768 652.796875 470.398438 652.796875 268.800781 C 652.796875 120.386719 532.414062 0 384 0 Z M 384 364.800781 C 331.007812 364.800781 288 321.792969 288 268.800781 C 288 215.808594 331.007812 172.800781 384 172.800781 C 436.992188 172.800781 480 215.808594 480 268.800781 C 480 321.792969 436.992188 364.800781 384 364.800781 Z M 384 364.800781 " fill-opacity="1" fill-rule="nonzero"/></g></svg>