<svg xmlns="http://www.w3.org/2000/svg" xmlns:xlink="http://www.w3.org/1999/xlink" width="1024" zoomAndPan="magnify" viewBox="0 0 768 767.999994" height="1024" preserveAspectRatio="xMidYMid meet" version="1.0"><defs><clipPath id="f4782795aa"><path d="M 7.386719 61.085938 L 760.386719 61.085938 L 760.386719 706.804688 L 7.386719 706.804688 Z M 7.386719 61.085938 " clip-rule="nonzero"/></clipPath></defs><g clip-path="url(#f4782795aa)"><path fill="#ffffff" d="M 147.292969 481.238281 L 297.734375 481.238281 C 303.234375 481.238281 307.667969 485.683594 307.667969 491.175781 C 307.667969 496.667969 303.234375 501.117188 297.734375 501.117188 L 147.292969 501.117188 C 141.820312 501.117188 137.359375 496.667969 137.359375 491.175781 C 137.359375 485.683594 141.820312 481.238281 147.292969 481.238281 Z M 149.191406 442.457031 L 226.5 442.457031 C 231.972656 442.457031 236.433594 446.910156 236.433594 452.398438 C 236.433594 457.890625 231.972656 462.34375 226.5 462.34375 L 149.191406 462.34375 C 143.691406 462.34375 139.230469 457.890625 139.230469 452.398438 C 139.230469 446.910156 143.691406 442.457031 149.191406 442.457031 Z M 530.613281 422.074219 C 531.042969 421.796875 531.648438 421.757812 532.167969 422.101562 L 603.027344 469.339844 C 604.121094 470.054688 603.804688 471.703125 602.535156 471.972656 L 576.625 477.460938 C 575.644531 477.667969 575.15625 478.789062 575.671875 479.648438 L 584.050781 493.238281 C 584.453125 493.921875 584.253906 494.816406 583.5625 495.238281 L 572.042969 502.332031 C 571.355469 502.753906 570.460938 502.539062 570.03125 501.859375 L 561.679688 488.265625 C 561.160156 487.410156 559.921875 487.332031 559.289062 488.117188 L 542.734375 508.78125 C 541.925781 509.78125 540.316406 509.324219 540.140625 508.046875 L 529.921875 423.488281 C 529.835938 422.871094 530.152344 422.351562 530.613281 422.074219 Z M 531.359375 373.902344 L 534.613281 373.902344 C 537.4375 373.902344 539.59375 374.878906 541.0625 376.835938 C 542.5625 378.792969 543.308594 381.695312 543.308594 385.554688 L 543.308594 387.28125 C 543.308594 391.15625 542.5625 394.074219 541.0625 396.039062 C 539.59375 398.003906 537.464844 398.988281 534.730469 398.988281 L 531.359375 398.988281 Z M 599.054688 373.875 L 605.15625 373.875 C 606.941406 373.875 608.324219 374.367188 609.246094 375.34375 C 610.195312 376.324219 610.65625 377.675781 610.65625 379.398438 C 610.65625 381.121094 610.195312 382.460938 609.273438 383.425781 C 608.351562 384.386719 606.972656 384.871094 605.15625 384.871094 L 599.054688 384.871094 Z M 494.679688 373.875 L 500.78125 373.875 C 502.597656 373.875 503.949219 374.367188 504.898438 375.34375 C 505.820312 376.324219 506.28125 377.675781 506.28125 379.398438 C 506.28125 381.121094 505.820312 382.460938 504.898438 383.425781 C 503.980469 384.386719 502.597656 384.871094 500.78125 384.871094 L 494.679688 384.871094 Z M 462.691406 373.460938 C 465.164062 373.460938 467.066406 374.492188 468.390625 376.546875 C 469.714844 378.605469 470.378906 381.617188 470.378906 385.582031 L 470.378906 387.417969 C 470.347656 391.292969 469.6875 394.261719 468.363281 396.328125 C 467.066406 398.394531 465.195312 399.425781 462.746094 399.425781 C 460.183594 399.425781 458.253906 398.375 456.960938 396.273438 C 455.664062 394.171875 455.03125 391.164062 455.03125 387.253906 L 455.058594 384.320312 C 455.320312 377.082031 457.882812 373.460938 462.691406 373.460938 Z M 589.4375 366.472656 L 589.4375 406.390625 L 599.054688 406.390625 L 599.054688 392.269531 L 604.265625 392.269531 L 611.320312 406.390625 L 621.625 406.390625 L 621.625 405.976562 L 613.277344 389.859375 C 615.695312 388.726562 617.453125 387.25 618.574219 385.425781 C 619.695312 383.597656 620.246094 381.296875 620.246094 378.523438 C 620.246094 374.6875 618.921875 371.71875 616.242188 369.621094 C 613.59375 367.523438 609.878906 366.472656 605.15625 366.472656 Z M 558.023438 366.472656 L 558.023438 406.390625 L 585.519531 406.390625 L 585.519531 398.988281 L 567.640625 398.988281 L 567.640625 389.449219 L 582.785156 389.449219 L 582.785156 382.316406 L 567.640625 382.316406 L 567.640625 373.902344 L 585.578125 373.902344 L 585.578125 366.472656 Z M 521.742188 366.472656 L 521.742188 406.390625 L 534.875 406.390625 C 538.328125 406.371094 541.46875 405.546875 544.257812 403.90625 C 547.082031 402.273438 549.242188 400.003906 550.796875 397.109375 C 552.351562 394.210938 553.097656 390.9375 553.097656 387.28125 L 553.097656 385.441406 C 553.097656 381.824219 552.292969 378.558594 550.710938 375.640625 C 549.125 372.726562 546.9375 370.46875 544.117188 368.871094 C 541.292969 367.269531 538.125 366.472656 534.613281 366.472656 Z M 485.0625 366.472656 L 485.0625 406.390625 L 494.679688 406.390625 L 494.679688 392.269531 L 499.890625 392.269531 L 506.945312 406.390625 L 517.253906 406.390625 L 517.253906 405.976562 L 508.902344 389.859375 C 511.320312 388.726562 513.078125 387.25 514.199219 385.425781 C 515.324219 383.597656 515.871094 381.296875 515.871094 378.523438 C 515.871094 374.6875 514.546875 371.71875 511.867188 369.621094 C 509.21875 367.523438 505.503906 366.472656 500.78125 366.472656 Z M 462.691406 365.921875 C 459.292969 365.921875 456.238281 366.734375 453.5625 368.363281 C 450.882812 369.988281 448.8125 372.296875 447.402344 375.285156 C 445.960938 378.277344 445.242188 381.726562 445.242188 385.636719 L 445.242188 387.882812 C 445.296875 391.648438 446.074219 394.984375 447.542969 397.890625 C 449.011719 400.796875 451.085938 403.03125 453.707031 404.59375 C 456.328125 406.15625 459.351562 406.9375 462.746094 406.9375 C 466.144531 406.9375 469.167969 406.128906 471.84375 404.511719 C 474.496094 402.894531 476.539062 400.585938 477.980469 397.589844 C 479.445312 394.59375 480.167969 391.144531 480.167969 387.253906 L 480.167969 385.417969 C 480.136719 381.578125 479.390625 378.175781 477.921875 375.203125 C 476.453125 372.234375 474.378906 369.945312 471.730469 368.335938 C 469.082031 366.726562 466.085938 365.921875 462.691406 365.921875 Z M 145.652344 360.179688 L 189.070312 360.179688 L 189.070312 366.71875 L 145.652344 366.71875 Z M 145.652344 347.167969 L 189.070312 347.167969 L 189.070312 353.707031 L 145.652344 353.707031 Z M 430.902344 345.203125 L 635.964844 345.203125 C 642.070312 345.203125 646.992188 350.144531 646.992188 356.242188 L 646.992188 416.621094 C 646.992188 422.714844 642.070312 427.65625 635.964844 427.65625 L 555.316406 427.65625 L 532.082031 412.632812 C 527.214844 409.488281 520.910156 413.382812 521.511719 419.132812 L 522.433594 427.65625 L 430.902344 427.65625 C 424.796875 427.65625 419.875 422.714844 419.875 416.621094 L 419.875 356.242188 C 419.875 350.144531 424.796875 345.203125 430.902344 345.203125 Z M 137.414062 338.484375 L 137.414062 375.402344 L 197.277344 375.402344 L 197.277344 338.484375 Z M 427.015625 265.871094 L 639.824219 265.871094 C 645.324219 265.871094 649.785156 270.324219 649.785156 275.808594 C 649.785156 281.300781 645.324219 285.753906 639.824219 285.753906 L 427.015625 285.753906 C 421.515625 285.753906 417.082031 281.300781 417.082031 275.808594 C 417.082031 270.324219 421.515625 265.871094 427.015625 265.871094 Z M 196.097656 229.03125 L 248.960938 229.03125 L 248.960938 284.921875 L 222.527344 265.8125 L 196.097656 284.921875 Z M 118.210938 229.03125 L 189.242188 229.03125 L 189.242188 296.597656 L 222.328125 274.546875 L 255.410156 296.597656 L 255.410156 229.03125 L 326.816406 229.03125 L 326.816406 394.058594 L 118.210938 394.058594 Z M 427.015625 224.085938 L 515.785156 224.085938 C 521.253906 224.085938 525.71875 228.535156 525.71875 234.027344 C 525.71875 239.515625 521.253906 243.96875 515.785156 243.96875 L 427.015625 243.96875 C 421.515625 243.96875 417.082031 239.515625 417.082031 234.027344 C 417.082031 228.535156 421.515625 224.085938 427.015625 224.085938 Z M 427.015625 180.605469 L 579.097656 180.605469 C 584.597656 180.605469 589.0625 185.054688 589.0625 190.542969 C 589.0625 196.035156 584.597656 200.484375 579.097656 200.484375 L 427.015625 200.484375 C 421.515625 200.484375 417.082031 196.035156 417.082031 190.542969 C 417.082031 185.054688 421.515625 180.605469 427.015625 180.605469 Z M 245.273438 165.976562 L 300.816406 165.976562 L 326.816406 222.957031 L 255.582031 222.957031 Z M 206.375 165.976562 L 238.652344 165.976562 L 248.960938 222.957031 L 196.066406 222.957031 Z M 144.210938 165.976562 L 199.78125 165.976562 L 189.445312 222.957031 L 118.210938 222.957031 Z M 100.820312 110.742188 C 78.449219 110.742188 60.308594 128.894531 60.308594 151.285156 L 60.308594 528.390625 C 60.308594 550.78125 78.449219 568.929688 100.820312 568.929688 L 667.175781 568.929688 C 689.550781 568.929688 707.6875 550.78125 707.6875 528.390625 L 707.6875 151.285156 C 707.6875 128.894531 689.550781 110.742188 667.175781 110.742188 Z M 69.839844 61.085938 L 698.15625 61.085938 C 732.652344 61.085938 760.609375 89.054688 760.609375 123.554688 L 760.609375 556.117188 C 760.609375 590.617188 732.652344 618.585938 698.15625 618.585938 L 434.53125 618.585938 L 434.53125 651.488281 L 434.328125 653.375 L 552.609375 653.375 C 567.378906 653.375 579.386719 665.359375 579.386719 680.144531 C 579.386719 694.929688 567.378906 706.914062 552.609375 706.914062 L 215.386719 706.914062 C 202.460938 706.914062 191.660156 697.734375 189.15625 685.539062 L 188.609375 680.144531 L 189.15625 674.75 C 191.660156 662.550781 202.460938 653.375 215.386719 653.375 L 333.667969 653.375 L 333.46875 651.488281 L 333.46875 618.585938 L 69.839844 618.585938 C 35.34375 618.585938 7.386719 590.617188 7.386719 556.117188 L 7.386719 123.554688 C 7.386719 89.054688 35.34375 61.085938 69.839844 61.085938 Z M 69.839844 61.085938 " fill-opacity="1" fill-rule="evenodd"/></g></svg>