<svg xmlns="http://www.w3.org/2000/svg" xmlns:xlink="http://www.w3.org/1999/xlink" width="1024" zoomAndPan="magnify" viewBox="0 0 768 767.999994" height="1024" preserveAspectRatio="xMidYMid meet" version="1.0"><path fill="#ffffff" d="M 758.5 563.789062 C 764.109375 578.769531 767.378906 594.863281 767.875 611.695312 C 767.996094 613.300781 767.996094 614.902344 767.996094 616.566406 C 767.996094 700.175781 700.171875 767.996094 616.5625 767.996094 C 276.035156 767.996094 0 491.960938 0 151.429688 C 0 67.824219 67.824219 0 151.429688 0 C 153.09375 0 154.695312 0 156.300781 0.125 C 173.132812 0.617188 189.285156 3.886719 204.265625 9.496094 L 261.117188 255.628906 C 261.117188 255.753906 261.054688 255.8125 260.929688 255.875 L 156.667969 302.734375 L 156.359375 302.859375 C 204.207031 448.550781 319.445312 563.789062 465.136719 611.636719 L 465.261719 611.324219 L 512.183594 507.003906 L 758.5 563.789062 " fill-opacity="1" fill-rule="nonzero"/></svg>