<svg xmlns="http://www.w3.org/2000/svg" xmlns:xlink="http://www.w3.org/1999/xlink" width="1024" zoomAndPan="magnify" viewBox="0 0 768 767.999994" height="1024" preserveAspectRatio="xMidYMid meet" version="1.0"><path fill="#ffffff" d="M 510.242188 247.816406 L 510.242188 217.425781 C 510.242188 210.410156 511.414062 203.398438 512.582031 197.550781 C 505.566406 201.058594 496.214844 204.566406 486.863281 206.902344 L 497.386719 252.492188 C 502.0625 250.15625 505.566406 248.988281 510.242188 247.816406 Z M 510.242188 247.816406 " fill-opacity="1" fill-rule="nonzero"/><path fill="#ffffff" d="M 286.972656 252.492188 C 274.117188 245.480469 263.59375 238.464844 256.582031 231.453125 L 256.582031 288.730469 C 268.269531 295.746094 282.296875 301.589844 298.664062 307.433594 Z M 286.972656 252.492188 " fill-opacity="1" fill-rule="nonzero"/><path fill="#ffffff" d="M 250.738281 67.800781 C 250.738281 68.910156 250.710938 70.019531 250.65625 71.125 C 250.601562 72.234375 250.519531 73.339844 250.410156 74.445312 C 250.300781 75.546875 250.164062 76.648438 250.003906 77.746094 C 249.839844 78.84375 249.652344 79.9375 249.433594 81.027344 C 249.21875 82.113281 248.976562 83.195312 248.703125 84.273438 C 248.433594 85.347656 248.140625 86.417969 247.816406 87.480469 C 247.496094 88.542969 247.148438 89.59375 246.773438 90.640625 C 246.398438 91.683594 246 92.71875 245.574219 93.746094 C 245.152344 94.769531 244.703125 95.785156 244.226562 96.785156 C 243.753906 97.789062 243.253906 98.78125 242.730469 99.757812 C 242.207031 100.738281 241.660156 101.703125 241.089844 102.65625 C 240.519531 103.605469 239.925781 104.542969 239.3125 105.464844 C 238.695312 106.390625 238.054688 107.296875 237.394531 108.1875 C 236.734375 109.078125 236.050781 109.953125 235.347656 110.808594 C 234.644531 111.667969 233.917969 112.507812 233.171875 113.332031 C 232.429688 114.152344 231.664062 114.957031 230.878906 115.742188 C 230.09375 116.523438 229.292969 117.289062 228.46875 118.035156 C 227.648438 118.78125 226.808594 119.503906 225.949219 120.207031 C 225.089844 120.914062 224.21875 121.59375 223.324219 122.253906 C 222.433594 122.917969 221.527344 123.554688 220.605469 124.171875 C 219.683594 124.789062 218.746094 125.382812 217.792969 125.953125 C 216.839844 126.523438 215.875 127.070312 214.898438 127.59375 C 213.917969 128.117188 212.929688 128.613281 211.925781 129.089844 C 210.921875 129.5625 209.910156 130.011719 208.882812 130.4375 C 207.859375 130.863281 206.824219 131.261719 205.777344 131.636719 C 204.734375 132.007812 203.679688 132.355469 202.617188 132.679688 C 201.558594 133 200.488281 133.296875 199.410156 133.566406 C 198.335938 133.835938 197.253906 134.078125 196.164062 134.296875 C 195.078125 134.511719 193.984375 134.703125 192.886719 134.863281 C 191.789062 135.027344 190.6875 135.164062 189.582031 135.273438 C 188.480469 135.378906 187.371094 135.460938 186.265625 135.515625 C 185.15625 135.570312 184.046875 135.597656 182.9375 135.597656 C 181.828125 135.597656 180.71875 135.570312 179.609375 135.515625 C 178.503906 135.460938 177.398438 135.378906 176.292969 135.273438 C 175.1875 135.164062 174.085938 135.027344 172.988281 134.863281 C 171.890625 134.703125 170.800781 134.511719 169.710938 134.296875 C 168.621094 134.078125 167.539062 133.835938 166.464844 133.566406 C 165.386719 133.296875 164.320312 133 163.257812 132.679688 C 162.195312 132.355469 161.140625 132.007812 160.097656 131.636719 C 159.050781 131.261719 158.015625 130.863281 156.992188 130.4375 C 155.96875 130.011719 154.953125 129.5625 153.949219 129.089844 C 152.945312 128.613281 151.957031 128.117188 150.976562 127.59375 C 150 127.070312 149.035156 126.523438 148.082031 125.953125 C 147.128906 125.382812 146.191406 124.789062 145.269531 124.171875 C 144.347656 123.554688 143.441406 122.917969 142.550781 122.253906 C 141.660156 121.59375 140.785156 120.914062 139.925781 120.207031 C 139.070312 119.503906 138.230469 118.78125 137.40625 118.035156 C 136.585938 117.289062 135.78125 116.523438 134.996094 115.742188 C 134.210938 114.957031 133.445312 114.152344 132.703125 113.332031 C 131.957031 112.507812 131.230469 111.667969 130.527344 110.808594 C 129.824219 109.953125 129.140625 109.078125 128.480469 108.1875 C 127.820312 107.296875 127.179688 106.390625 126.566406 105.464844 C 125.949219 104.542969 125.355469 103.605469 124.785156 102.65625 C 124.214844 101.703125 123.667969 100.738281 123.144531 99.757812 C 122.621094 98.78125 122.121094 97.789062 121.648438 96.785156 C 121.171875 95.785156 120.722656 94.769531 120.300781 93.746094 C 119.875 92.71875 119.476562 91.683594 119.101562 90.640625 C 118.726562 89.59375 118.378906 88.542969 118.058594 87.480469 C 117.734375 86.417969 117.441406 85.347656 117.171875 84.273438 C 116.902344 83.195312 116.65625 82.113281 116.441406 81.027344 C 116.226562 79.9375 116.035156 78.84375 115.871094 77.746094 C 115.710938 76.648438 115.574219 75.546875 115.464844 74.445312 C 115.355469 73.339844 115.273438 72.234375 115.21875 71.125 C 115.164062 70.019531 115.140625 68.910156 115.140625 67.800781 C 115.140625 66.691406 115.164062 65.582031 115.21875 64.472656 C 115.273438 63.363281 115.355469 62.257812 115.464844 61.152344 C 115.574219 60.050781 115.710938 58.949219 115.871094 57.851562 C 116.035156 56.753906 116.226562 55.660156 116.441406 54.570312 C 116.65625 53.484375 116.902344 52.402344 117.171875 51.324219 C 117.441406 50.25 117.734375 49.179688 118.058594 48.117188 C 118.378906 47.054688 118.726562 46.003906 119.101562 44.957031 C 119.476562 43.914062 119.875 42.878906 120.300781 41.851562 C 120.722656 40.828125 121.171875 39.8125 121.648438 38.8125 C 122.121094 37.808594 122.621094 36.816406 123.144531 35.839844 C 123.667969 34.859375 124.214844 33.894531 124.785156 32.945312 C 125.355469 31.992188 125.949219 31.054688 126.566406 30.132812 C 127.179688 29.210938 127.820312 28.300781 128.480469 27.410156 C 129.140625 26.519531 129.824219 25.644531 130.527344 24.789062 C 131.230469 23.929688 131.957031 23.089844 132.703125 22.269531 C 133.445312 21.445312 134.210938 20.640625 134.996094 19.859375 C 135.78125 19.074219 136.585938 18.308594 137.40625 17.5625 C 138.230469 16.816406 139.070312 16.09375 139.925781 15.390625 C 140.785156 14.6875 141.660156 14.003906 142.550781 13.34375 C 143.441406 12.679688 144.347656 12.042969 145.269531 11.425781 C 146.191406 10.808594 147.128906 10.214844 148.082031 9.644531 C 149.035156 9.074219 150 8.527344 150.976562 8.003906 C 151.957031 7.484375 152.945312 6.984375 153.949219 6.507812 C 154.953125 6.035156 155.96875 5.585938 156.992188 5.160156 C 158.015625 4.734375 159.050781 4.335938 160.097656 3.964844 C 161.140625 3.589844 162.195312 3.242188 163.257812 2.917969 C 164.320312 2.597656 165.386719 2.300781 166.464844 2.03125 C 167.539062 1.761719 168.621094 1.519531 169.710938 1.304688 C 170.800781 1.085938 171.890625 0.898438 172.988281 0.734375 C 174.085938 0.570312 175.1875 0.433594 176.292969 0.328125 C 177.398438 0.21875 178.503906 0.136719 179.609375 0.0820312 C 180.71875 0.0273438 181.828125 0 182.9375 0 C 184.046875 0 185.15625 0.0273438 186.265625 0.0820312 C 187.371094 0.136719 188.480469 0.21875 189.582031 0.328125 C 190.6875 0.433594 191.789062 0.570312 192.886719 0.734375 C 193.984375 0.898438 195.078125 1.085938 196.164062 1.304688 C 197.253906 1.519531 198.335938 1.761719 199.410156 2.03125 C 200.488281 2.300781 201.558594 2.597656 202.617188 2.917969 C 203.679688 3.242188 204.734375 3.589844 205.777344 3.964844 C 206.824219 4.335938 207.859375 4.734375 208.882812 5.160156 C 209.910156 5.585938 210.921875 6.035156 211.925781 6.507812 C 212.929688 6.984375 213.917969 7.484375 214.898438 8.003906 C 215.875 8.527344 216.839844 9.074219 217.792969 9.644531 C 218.746094 10.214844 219.683594 10.808594 220.605469 11.425781 C 221.527344 12.042969 222.433594 12.679688 223.324219 13.34375 C 224.21875 14.003906 225.089844 14.6875 225.949219 15.390625 C 226.808594 16.09375 227.648438 16.816406 228.46875 17.5625 C 229.292969 18.308594 230.09375 19.074219 230.878906 19.859375 C 231.664062 20.640625 232.429688 21.445312 233.171875 22.269531 C 233.917969 23.089844 234.644531 23.929688 235.347656 24.789062 C 236.050781 25.644531 236.734375 26.519531 237.394531 27.410156 C 238.054688 28.300781 238.695312 29.210938 239.3125 30.132812 C 239.925781 31.054688 240.519531 31.992188 241.089844 32.945312 C 241.660156 33.894531 242.207031 34.859375 242.730469 35.839844 C 243.253906 36.816406 243.753906 37.808594 244.226562 38.8125 C 244.703125 39.8125 245.152344 40.828125 245.574219 41.851562 C 246 42.878906 246.398438 43.914062 246.773438 44.957031 C 247.148438 46.003906 247.496094 47.054688 247.816406 48.117188 C 248.140625 49.179688 248.433594 50.25 248.703125 51.324219 C 248.976562 52.402344 249.21875 53.484375 249.433594 54.570312 C 249.652344 55.660156 249.839844 56.753906 250.003906 57.851562 C 250.164062 58.949219 250.300781 60.050781 250.410156 61.152344 C 250.519531 62.257812 250.601562 63.363281 250.65625 64.472656 C 250.710938 65.582031 250.738281 66.691406 250.738281 67.800781 Z M 250.738281 67.800781 " fill-opacity="1" fill-rule="nonzero"/><path fill="#ffffff" d="M 243.722656 434.847656 C 244.890625 430.171875 244.890625 425.496094 244.890625 420.820312 L 244.890625 382.246094 C 160.726562 349.515625 126.828125 279.378906 142.023438 220.929688 C 146.699219 202.226562 165.402344 190.539062 185.277344 195.214844 C 203.980469 199.890625 215.667969 218.59375 210.992188 237.296875 C 206.316406 258.339844 216.835938 285.222656 246.0625 303.925781 L 246.0625 217.425781 C 246.0625 178.847656 214.5 147.289062 175.925781 147.289062 C 137.347656 147.289062 105.789062 178.847656 105.789062 217.425781 L 105.789062 421.992188 C 105.789062 451.214844 123.320312 475.761719 149.039062 486.28125 C 143.195312 542.394531 131.503906 641.753906 109.292969 696.695312 C 99.941406 721.242188 111.632812 748.128906 136.179688 757.480469 C 159.558594 766.832031 187.613281 755.140625 196.964844 730.59375 C 229.695312 644.089844 248.398438 454.722656 243.722656 434.847656 C 243.722656 436.019531 243.722656 436.019531 243.722656 434.847656 Z M 243.722656 434.847656 " fill-opacity="1" fill-rule="nonzero"/><path fill="#ffffff" d="M 651.6875 67.800781 C 651.6875 68.910156 651.660156 70.019531 651.605469 71.125 C 651.550781 72.234375 651.46875 73.339844 651.359375 74.445312 C 651.25 75.546875 651.117188 76.648438 650.953125 77.746094 C 650.789062 78.84375 650.601562 79.9375 650.382812 81.027344 C 650.167969 82.113281 649.925781 83.195312 649.65625 84.273438 C 649.386719 85.347656 649.089844 86.417969 648.765625 87.480469 C 648.445312 88.542969 648.097656 89.59375 647.722656 90.640625 C 647.347656 91.683594 646.949219 92.71875 646.527344 93.746094 C 646.101562 94.769531 645.652344 95.785156 645.175781 96.785156 C 644.703125 97.789062 644.203125 98.78125 643.679688 99.757812 C 643.15625 100.738281 642.609375 101.703125 642.039062 102.65625 C 641.46875 103.605469 640.875 104.542969 640.261719 105.464844 C 639.644531 106.390625 639.003906 107.296875 638.34375 108.1875 C 637.683594 109.078125 637 109.953125 636.296875 110.808594 C 635.59375 111.667969 634.867188 112.507812 634.125 113.332031 C 633.378906 114.152344 632.613281 114.957031 631.828125 115.742188 C 631.042969 116.523438 630.242188 117.289062 629.417969 118.035156 C 628.597656 118.78125 627.757812 119.503906 626.898438 120.207031 C 626.042969 120.914062 625.167969 121.59375 624.273438 122.253906 C 623.382812 122.917969 622.476562 123.554688 621.554688 124.171875 C 620.632812 124.789062 619.695312 125.382812 618.742188 125.953125 C 617.792969 126.523438 616.828125 127.070312 615.847656 127.59375 C 614.871094 128.117188 613.878906 128.613281 612.875 129.089844 C 611.871094 129.5625 610.859375 130.011719 609.832031 130.4375 C 608.808594 130.863281 607.773438 131.261719 606.726562 131.636719 C 605.683594 132.007812 604.628906 132.355469 603.570312 132.679688 C 602.507812 133 601.4375 133.296875 600.363281 133.566406 C 599.285156 133.835938 598.203125 134.078125 597.113281 134.296875 C 596.027344 134.511719 594.933594 134.703125 593.835938 134.863281 C 592.738281 135.027344 591.636719 135.164062 590.53125 135.273438 C 589.429688 135.378906 588.324219 135.460938 587.214844 135.515625 C 586.105469 135.570312 584.996094 135.597656 583.886719 135.597656 C 582.777344 135.597656 581.667969 135.570312 580.5625 135.515625 C 579.453125 135.460938 578.347656 135.378906 577.242188 135.273438 C 576.136719 135.164062 575.035156 135.027344 573.9375 134.863281 C 572.839844 134.703125 571.75 134.511719 570.660156 134.296875 C 569.574219 134.078125 568.488281 133.835938 567.414062 133.566406 C 566.335938 133.296875 565.269531 133 564.207031 132.679688 C 563.144531 132.355469 562.089844 132.007812 561.046875 131.636719 C 560.003906 131.261719 558.96875 130.863281 557.941406 130.4375 C 556.917969 130.011719 555.902344 129.5625 554.898438 129.089844 C 553.898438 128.613281 552.90625 128.117188 551.925781 127.59375 C 550.949219 127.070312 549.984375 126.523438 549.03125 125.953125 C 548.082031 125.382812 547.144531 124.789062 546.21875 124.171875 C 545.296875 123.554688 544.390625 122.917969 543.5 122.253906 C 542.609375 121.59375 541.734375 120.914062 540.875 120.207031 C 540.019531 119.503906 539.179688 118.78125 538.355469 118.035156 C 537.535156 117.289062 536.730469 116.523438 535.945312 115.742188 C 535.160156 114.957031 534.398438 114.152344 533.652344 113.332031 C 532.90625 112.507812 532.183594 111.667969 531.476562 110.808594 C 530.773438 109.953125 530.089844 109.078125 529.429688 108.1875 C 528.769531 107.296875 528.132812 106.390625 527.515625 105.464844 C 526.898438 104.542969 526.304688 103.605469 525.734375 102.65625 C 525.164062 101.703125 524.617188 100.738281 524.09375 99.757812 C 523.570312 98.78125 523.074219 97.789062 522.597656 96.785156 C 522.125 95.785156 521.675781 94.769531 521.25 93.746094 C 520.824219 92.71875 520.425781 91.683594 520.050781 90.640625 C 519.679688 89.59375 519.328125 88.542969 519.007812 87.480469 C 518.6875 86.417969 518.390625 85.347656 518.121094 84.273438 C 517.851562 83.195312 517.609375 82.113281 517.390625 81.027344 C 517.175781 79.9375 516.984375 78.84375 516.824219 77.746094 C 516.660156 76.648438 516.523438 75.546875 516.414062 74.445312 C 516.304688 73.339844 516.226562 72.234375 516.171875 71.125 C 516.117188 70.019531 516.089844 68.910156 516.089844 67.800781 C 516.089844 66.691406 516.117188 65.582031 516.171875 64.472656 C 516.222656 63.363281 516.304688 62.257812 516.414062 61.152344 C 516.523438 60.050781 516.660156 58.949219 516.824219 57.851562 C 516.984375 56.753906 517.175781 55.660156 517.390625 54.570312 C 517.609375 53.484375 517.851562 52.402344 518.121094 51.324219 C 518.390625 50.25 518.6875 49.179688 519.007812 48.117188 C 519.328125 47.054688 519.679688 46.003906 520.050781 44.957031 C 520.425781 43.914062 520.824219 42.878906 521.25 41.851562 C 521.675781 40.828125 522.125 39.8125 522.597656 38.8125 C 523.074219 37.808594 523.570312 36.816406 524.09375 35.839844 C 524.617188 34.859375 525.164062 33.894531 525.734375 32.945312 C 526.304688 31.992188 526.898438 31.054688 527.515625 30.132812 C 528.132812 29.210938 528.769531 28.300781 529.429688 27.410156 C 530.089844 26.519531 530.773438 25.644531 531.476562 24.789062 C 532.183594 23.929688 532.90625 23.089844 533.652344 22.269531 C 534.398438 21.445312 535.160156 20.640625 535.945312 19.859375 C 536.730469 19.074219 537.535156 18.308594 538.355469 17.5625 C 539.179688 16.816406 540.019531 16.09375 540.875 15.390625 C 541.734375 14.6875 542.609375 14.003906 543.5 13.34375 C 544.390625 12.679688 545.296875 12.042969 546.21875 11.425781 C 547.144531 10.808594 548.082031 10.214844 549.03125 9.644531 C 549.984375 9.074219 550.949219 8.527344 551.925781 8.003906 C 552.90625 7.484375 553.898438 6.984375 554.898438 6.507812 C 555.902344 6.035156 556.917969 5.585938 557.941406 5.160156 C 558.96875 4.734375 560.003906 4.335938 561.046875 3.964844 C 562.089844 3.589844 563.144531 3.242188 564.207031 2.917969 C 565.269531 2.597656 566.335938 2.300781 567.414062 2.03125 C 568.488281 1.761719 569.574219 1.519531 570.660156 1.304688 C 571.75 1.085938 572.839844 0.898438 573.9375 0.734375 C 575.035156 0.570312 576.136719 0.433594 577.242188 0.328125 C 578.347656 0.21875 579.453125 0.136719 580.5625 0.0820312 C 581.667969 0.0273438 582.777344 0 583.886719 0 C 584.996094 0 586.105469 0.0273438 587.214844 0.0820312 C 588.324219 0.136719 589.429688 0.21875 590.53125 0.328125 C 591.636719 0.433594 592.738281 0.570312 593.835938 0.734375 C 594.933594 0.898438 596.027344 1.085938 597.113281 1.304688 C 598.203125 1.519531 599.285156 1.761719 600.359375 2.03125 C 601.4375 2.300781 602.507812 2.597656 603.570312 2.917969 C 604.628906 3.242188 605.683594 3.589844 606.726562 3.964844 C 607.773438 4.335938 608.808594 4.734375 609.832031 5.160156 C 610.859375 5.585938 611.871094 6.035156 612.875 6.507812 C 613.878906 6.984375 614.871094 7.484375 615.847656 8.003906 C 616.828125 8.527344 617.792969 9.074219 618.742188 9.644531 C 619.695312 10.214844 620.632812 10.808594 621.554688 11.425781 C 622.476562 12.042969 623.382812 12.679688 624.277344 13.34375 C 625.167969 14.003906 626.042969 14.6875 626.898438 15.390625 C 627.757812 16.09375 628.597656 16.816406 629.417969 17.5625 C 630.242188 18.308594 631.042969 19.074219 631.828125 19.859375 C 632.613281 20.640625 633.378906 21.445312 634.125 22.269531 C 634.867188 23.089844 635.59375 23.929688 636.296875 24.789062 C 637 25.644531 637.683594 26.519531 638.34375 27.410156 C 639.003906 28.300781 639.644531 29.210938 640.261719 30.132812 C 640.875 31.054688 641.46875 31.992188 642.039062 32.945312 C 642.609375 33.894531 643.15625 34.859375 643.679688 35.839844 C 644.203125 36.816406 644.703125 37.808594 645.175781 38.8125 C 645.652344 39.8125 646.101562 40.828125 646.527344 41.851562 C 646.949219 42.878906 647.347656 43.914062 647.722656 44.957031 C 648.097656 46.003906 648.445312 47.054688 648.765625 48.117188 C 649.089844 49.179688 649.386719 50.25 649.65625 51.324219 C 649.925781 52.402344 650.167969 53.484375 650.382812 54.570312 C 650.601562 55.660156 650.789062 56.753906 650.953125 57.851562 C 651.117188 58.949219 651.25 60.050781 651.359375 61.152344 C 651.46875 62.257812 651.550781 63.363281 651.605469 64.472656 C 651.660156 65.582031 651.6875 66.691406 651.6875 67.800781 Z M 651.6875 67.800781 " fill-opacity="1" fill-rule="nonzero"/><path fill="#ffffff" d="M 661.039062 701.371094 C 642.335938 639.414062 637.660156 527.195312 636.492188 474.59375 C 651.6875 461.734375 661.039062 441.863281 661.039062 420.820312 L 661.039062 217.425781 C 661.039062 178.847656 629.476562 147.289062 590.902344 147.289062 C 552.324219 147.289062 520.765625 178.847656 520.765625 217.425781 L 520.765625 315.617188 C 544.144531 312.109375 558.171875 302.757812 561.675781 289.898438 C 565.183594 278.210938 560.507812 259.507812 551.15625 239.632812 C 541.804688 222.101562 548.820312 201.058594 566.351562 192.875 C 583.886719 183.523438 604.929688 190.539062 613.109375 208.074219 C 623.632812 227.945312 638.828125 267.691406 628.308594 307.433594 C 614.28125 362.375 566.351562 381.078125 519.59375 385.753906 L 519.59375 421.992188 C 519.59375 441.863281 527.777344 459.398438 540.636719 472.253906 C 541.804688 526.027344 546.480469 653.441406 568.691406 729.425781 C 575.703125 753.972656 602.589844 768 627.140625 760.984375 C 654.023438 752.804688 668.050781 725.917969 661.039062 701.371094 Z M 661.039062 701.371094 " fill-opacity="1" fill-rule="nonzero"/><path fill="#ffffff" d="M 433.09375 310.941406 C 458.808594 314.449219 481.019531 316.785156 499.722656 315.617188 L 464.65625 156.640625 L 414.390625 168.328125 L 433.09375 254.832031 L 388.671875 233.789062 L 357.113281 272.367188 L 337.238281 185.863281 L 286.972656 197.550781 L 316.199219 330.8125 C 322.042969 331.980469 327.886719 333.152344 333.730469 333.152344 C 351.265625 335.488281 364.125 349.515625 364.125 367.050781 L 394.519531 360.035156 C 392.179688 354.191406 391.011719 348.347656 392.179688 341.332031 C 395.6875 321.460938 413.222656 308.601562 433.09375 310.941406 Z M 433.09375 310.941406 " fill-opacity="1" fill-rule="nonzero"/><path fill="#ffffff" d="M 385.167969 219.761719 L 416.726562 234.957031 L 402.699219 171.835938 L 348.929688 183.523438 L 362.957031 246.648438 Z M 385.167969 219.761719 " fill-opacity="1" fill-rule="nonzero"/><path fill="#ffffff" d="M 332.5625 343.671875 C 261.257812 334.320312 184.105469 299.25 199.304688 234.957031 C 202.808594 222.101562 194.628906 210.410156 181.769531 206.902344 C 168.910156 203.398438 156.050781 211.578125 153.714844 223.269531 C 137.347656 287.5625 180.601562 371.726562 325.550781 390.429688 C 338.40625 391.597656 350.097656 383.414062 351.265625 370.558594 C 353.605469 357.699219 345.421875 346.007812 332.5625 343.671875 Z M 332.5625 343.671875 " fill-opacity="1" fill-rule="nonzero"/><path fill="#ffffff" d="M 618.957031 303.925781 C 628.308594 267.691406 614.28125 231.453125 603.757812 212.75 C 597.914062 201.058594 583.886719 196.382812 572.199219 202.226562 C 560.507812 208.074219 555.832031 222.101562 561.675781 233.789062 C 573.367188 256 576.875 277.042969 573.367188 292.238281 C 564.015625 326.136719 517.257812 336.65625 430.753906 323.800781 C 417.898438 321.460938 406.207031 330.8125 403.871094 343.671875 C 401.53125 356.53125 410.882812 368.21875 423.742188 370.558594 C 503.230469 381.078125 597.914062 381.078125 618.957031 303.925781 Z M 618.957031 303.925781 " fill-opacity="1" fill-rule="nonzero"/></svg>