<svg xmlns="http://www.w3.org/2000/svg" xmlns:xlink="http://www.w3.org/1999/xlink" width="1024" zoomAndPan="magnify" viewBox="0 0 768 767.999994" height="1024" preserveAspectRatio="xMidYMid meet" version="1.0"><defs><clipPath id="c552fbbcb3"><path d="M 205 165.777344 L 768 165.777344 L 768 579 L 205 579 Z M 205 165.777344 " clip-rule="nonzero"/></clipPath></defs><g clip-path="url(#c552fbbcb3)"><path fill="#ffffff" d="M 471.234375 448.414062 C 469.308594 448.546875 467.648438 448.820312 466.003906 448.746094 C 462.675781 448.59375 459.359375 448.222656 456.035156 448.019531 C 454.96875 447.957031 453.753906 447.855469 452.847656 448.285156 C 450.964844 449.183594 449.164062 449.121094 447.355469 448.382812 C 445.851562 447.769531 444.503906 447.308594 443.035156 448.542969 C 442.496094 448.992188 441.441406 449.359375 440.863281 449.140625 C 438.648438 448.285156 436.722656 449.230469 434.644531 449.621094 C 433.039062 449.921875 431.277344 449.5 429.59375 449.300781 C 427.746094 449.082031 425.976562 448.4375 424.238281 450.019531 C 423.582031 450.617188 421.957031 450.765625 421.082031 450.390625 C 418.25 449.175781 415.472656 449.738281 412.695312 450.230469 C 409.3125 450.828125 405.972656 451.648438 402.605469 452.332031 C 400.59375 452.742188 398.457031 452.695312 396.8125 454.273438 C 396.5 454.574219 395.84375 454.570312 395.339844 454.617188 C 391.695312 454.941406 388.925781 456.664062 386.511719 459.417969 C 384.136719 462.128906 381.238281 464.375 378.792969 467.03125 C 377.507812 468.433594 376.613281 470.230469 375.707031 471.9375 C 375.070312 473.144531 374.945312 474.671875 374.167969 475.75 C 372.496094 478.070312 372.433594 480.71875 372.089844 483.339844 C 372 484.019531 372 484.726562 371.796875 485.371094 C 370.644531 489.058594 369.453125 492.738281 368.246094 496.410156 C 367.6875 498.101562 366.742188 499.738281 366.539062 501.464844 C 366.167969 504.589844 366.210938 507.765625 366.097656 510.921875 C 366.085938 511.261719 366.273438 511.632812 366.191406 511.945312 C 364.414062 518.652344 365.746094 525.464844 365.460938 532.222656 C 365.390625 533.929688 365.035156 535.65625 364.582031 537.3125 C 363.960938 539.578125 362.453125 541.019531 359.597656 541.347656 C 359.597656 542.636719 359.714844 543.964844 359.570312 545.257812 C 359.253906 548.117188 359.3125 551.167969 358.273438 553.757812 C 356.957031 557.023438 354.445312 559.347656 350.410156 559.632812 C 347.730469 559.820312 345.394531 561.304688 343.386719 563.1875 C 342.703125 563.832031 341.90625 564.503906 341.042969 564.78125 C 337.445312 565.929688 334.292969 567.867188 331.277344 570.046875 C 329.058594 571.648438 327.003906 573.492188 324.703125 574.953125 C 323.144531 575.941406 321.316406 576.558594 319.546875 577.140625 C 317.46875 577.824219 315.484375 578.796875 313.105469 578.425781 C 309.023438 577.789062 307.066406 573.324219 309.117188 569.710938 C 310.425781 567.410156 310.789062 564.566406 313.15625 562.878906 C 314.527344 557.441406 319.109375 554.890625 323.101562 551.800781 C 327.539062 548.367188 331.984375 544.976562 336.972656 542.328125 C 338.03125 541.765625 338.578125 540.234375 339.386719 539.117188 C 337.179688 536.929688 336.609375 534.453125 336.546875 531.664062 C 336.496094 529.265625 335.96875 526.875 335.652344 524.480469 C 335.5625 523.796875 335.359375 523.105469 335.40625 522.429688 C 335.546875 520.421875 335.269531 518.570312 334.453125 516.671875 C 333.949219 515.5 334.285156 513.972656 334.246094 512.605469 C 334.136719 508.824219 333.996094 505.042969 333.9375 501.261719 C 333.921875 500.238281 334.089844 499.199219 334.277344 498.1875 C 335.027344 494.136719 335.109375 490.113281 333.980469 486.109375 C 333.820312 485.539062 333.695312 484.898438 333.789062 484.328125 C 334.183594 481.90625 334.785156 479.515625 335.089844 477.082031 C 335.351562 474.980469 335.238281 472.835938 335.425781 470.722656 C 335.636719 468.34375 336.007812 465.976562 336.289062 463.601562 C 336.433594 462.402344 336.609375 461.195312 336.632812 459.988281 C 336.6875 457.464844 336.652344 454.941406 336.652344 452.070312 C 335.554688 452.597656 334.644531 452.878906 333.921875 453.414062 C 331.519531 455.191406 329.210938 457.101562 326.800781 458.875 C 326.140625 459.359375 325.285156 459.695312 324.472656 459.832031 C 322.285156 460.195312 320.496094 461.203125 318.71875 462.519531 C 315.195312 465.136719 311.511719 467.542969 307.851562 469.96875 C 303.851562 472.621094 299.828125 475.246094 295.757812 477.792969 C 294.167969 478.785156 292.492188 479.75 290.726562 480.324219 C 286.976562 481.539062 284.296875 484.285156 281.242188 486.496094 C 281.050781 486.636719 280.964844 486.914062 280.832031 487.128906 C 279.242188 489.742188 276.621094 490.644531 273.796875 489.234375 C 272.363281 488.519531 271.511719 488.605469 270.476562 489.816406 C 268.414062 492.214844 266.273438 494.554688 264.050781 496.808594 C 261.726562 499.164062 259.511719 501.796875 255.773438 501.886719 C 255.183594 501.902344 254.527344 502.082031 254.015625 501.886719 C 249.5625 500.175781 244.972656 499.3125 240.207031 499.035156 C 237.554688 498.882812 234.949219 498.085938 232.304688 497.765625 C 230.957031 497.601562 229.5625 497.894531 228.191406 497.90625 C 226.660156 497.914062 225.117188 497.953125 223.605469 497.773438 C 219.960938 497.335938 216.167969 497.867188 212.734375 496.050781 C 210.257812 494.738281 208.0625 493.136719 206.558594 490.699219 C 203.605469 485.914062 206.921875 481.195312 210.777344 479.402344 C 212.023438 478.820312 213.382812 478.484375 214.632812 477.910156 C 216.714844 476.953125 218.894531 476.816406 221.144531 476.578125 C 226 476.054688 230.785156 477.082031 235.566406 476.8125 C 238.949219 476.621094 242.492188 477.34375 245.769531 475.726562 C 246.394531 475.417969 247.300781 475.550781 248.054688 475.648438 C 253.007812 476.273438 255.1875 475.730469 259.550781 472.691406 C 257.238281 468.148438 259.492188 464.925781 263.773438 461.976562 C 264.886719 461.210938 265.582031 460.675781 265.480469 459.1875 C 265.433594 458.464844 266.117188 457.605469 266.644531 456.949219 C 268.808594 454.261719 270.917969 451.515625 273.28125 449.011719 C 275.277344 446.898438 277.667969 445.152344 279.761719 443.121094 C 282.601562 440.367188 285.324219 437.492188 288.09375 434.667969 C 288.394531 434.359375 288.644531 433.976562 288.992188 433.742188 C 292.769531 431.214844 296.589844 428.753906 300.328125 426.167969 C 301.445312 425.394531 302.308594 424.261719 303.34375 423.355469 C 305.539062 421.4375 307.765625 419.554688 309.996094 417.671875 C 310.71875 417.058594 311.632812 416.617188 312.210938 415.898438 C 314.113281 413.539062 316.722656 412.191406 319.222656 410.65625 C 321.703125 409.136719 324.226562 407.671875 326.605469 405.996094 C 330.769531 403.0625 334.820312 399.964844 338.957031 396.984375 C 340.0625 396.1875 341.308594 395.589844 342.460938 394.859375 C 345.429688 392.976562 348.382812 391.070312 351.34375 389.175781 C 351.488281 389.082031 351.636719 388.988281 351.792969 388.917969 C 355.882812 387.035156 359.976562 385.167969 364.054688 383.261719 C 364.902344 382.867188 365.808594 382.464844 366.472656 381.839844 C 368.664062 379.777344 371.234375 378.5625 374.070312 377.605469 C 376.902344 376.644531 379.578125 375.214844 382.300781 373.945312 C 386.257812 372.097656 390.199219 370.207031 394.152344 368.335938 C 394.386719 368.226562 394.636719 368.105469 394.886719 368.089844 C 399.4375 367.839844 402.882812 364.640625 407.125 363.523438 C 411.289062 362.425781 415.371094 361.023438 419.488281 359.746094 C 422.035156 358.957031 424.574219 358.144531 427.121094 357.355469 C 431.722656 355.925781 436.242188 353.914062 440.949219 353.246094 C 445.660156 352.582031 449.679688 350.183594 454.261719 349.261719 C 457.691406 348.570312 461.050781 347.375 464.574219 346.898438 C 468.746094 346.335938 472.898438 345.628906 477.398438 344.933594 C 477.277344 342.484375 477.214844 340.125 477.003906 337.78125 C 476.960938 337.304688 476.453125 336.707031 476 336.449219 C 474.257812 335.472656 474.066406 333.984375 473.792969 332.128906 C 473.285156 328.703125 474.449219 325.679688 475.816406 322.929688 C 477.585938 319.371094 480.753906 317.078125 484.917969 316.425781 C 490.355469 315.574219 495.773438 315.472656 501.09375 316.96875 C 503.625 317.683594 505.992188 318.96875 508.492188 319.832031 C 509.6875 320.242188 511.007812 320.355469 512.285156 320.457031 C 515.199219 320.695312 518.117188 320.847656 521.035156 321.019531 C 521.289062 321.035156 521.566406 320.851562 521.800781 320.90625 C 527.335938 322.15625 529.945312 318.078125 532.78125 314.699219 C 536.320312 310.476562 539.566406 306.011719 543.007812 301.707031 C 544.429688 299.925781 546.039062 298.289062 547.554688 296.582031 C 547.722656 296.390625 547.949219 296.171875 547.972656 295.941406 C 548.308594 292.996094 550.578125 291.636719 552.636719 290.039062 C 553.566406 289.320312 554.367188 288.324219 554.957031 287.300781 C 556.023438 285.460938 557.695312 284.484375 559.472656 283.550781 C 560.304688 283.113281 561.171875 282.644531 561.828125 281.996094 C 563.847656 280.003906 566.222656 278.769531 568.933594 277.984375 C 570.230469 277.609375 571.527344 276.914062 572.578125 276.0625 C 575.054688 274.0625 577.875 273.230469 580.964844 273.148438 C 583.417969 273.085938 585.878906 273.136719 588.5 273.136719 C 589.164062 270.074219 589.878906 266.960938 592 265.042969 C 591.640625 261.222656 591.3125 257.746094 590.976562 254.273438 C 590.945312 253.929688 590.9375 253.546875 590.773438 253.261719 C 589.597656 251.203125 589.957031 249.121094 590.46875 246.960938 C 591.394531 243.039062 591.863281 238.976562 593.132812 235.175781 C 594.789062 230.210938 596.359375 225.132812 599.636719 220.867188 C 599.789062 220.667969 599.847656 220.398438 600.023438 219.984375 C 599.460938 219.546875 598.835938 219.128906 598.292969 218.628906 C 595.5 216.066406 592.96875 212.335938 595.53125 207.378906 C 597.25 204.058594 598.941406 200.832031 602.007812 198.523438 C 603.355469 197.507812 604.621094 196.914062 606.480469 197.039062 C 609.910156 197.265625 613.378906 196.824219 616.824219 196.949219 C 620.835938 197.097656 624.839844 197.511719 628.832031 197.929688 C 629.53125 198 630.195312 198.625 630.832031 199.054688 C 631.824219 199.730469 632.78125 200.460938 633.933594 201.296875 C 634.359375 200.6875 634.824219 200.269531 634.976562 199.757812 C 636.40625 194.921875 638.5625 190.503906 641.691406 186.488281 C 644.96875 182.289062 647.921875 177.835938 651.066406 173.53125 C 651.609375 172.789062 652.363281 172.179688 653.082031 171.585938 C 654.675781 170.265625 656.289062 168.96875 657.933594 167.714844 C 658.453125 167.320312 659.082031 166.890625 659.699219 166.824219 C 663.105469 166.460938 666.535156 165.890625 669.9375 165.996094 C 673.808594 166.121094 677.671875 166.824219 681.523438 167.386719 C 684.601562 167.835938 687.664062 168.414062 690.71875 169.003906 C 692.320312 169.308594 693.878906 169.847656 695.484375 170.128906 C 697.777344 170.527344 700.089844 170.875 702.40625 171.085938 C 707.722656 171.570312 712.820312 172.558594 717.039062 176.21875 C 718.257812 177.273438 719.65625 178.171875 721.085938 178.929688 C 725.886719 181.472656 729.121094 185.601562 732.144531 189.882812 C 734.578125 193.328125 737.3125 196.75 738.832031 200.609375 C 741.058594 206.261719 745.183594 211.097656 745.808594 217.449219 C 746.390625 223.351562 748.136719 229.09375 748.070312 235.113281 C 748.023438 238.914062 748.707031 242.714844 748.789062 246.523438 C 748.847656 249.152344 748.371094 251.792969 748.257812 254.433594 C 748.191406 255.96875 748.5625 257.53125 748.398438 259.042969 C 747.953125 263.070312 750.195312 266.742188 749.488281 270.9375 C 748.980469 273.925781 750.199219 277.179688 750.457031 280.332031 C 750.6875 283.152344 750.726562 285.996094 750.730469 288.828125 C 750.734375 291.660156 750.566406 294.492188 750.519531 297.324219 C 750.484375 299.554688 750.082031 301.898438 750.613281 303.992188 C 751.554688 307.699219 751.539062 311.433594 751.964844 315.152344 C 752.386719 318.824219 752.917969 322.421875 752.609375 326.125 C 752.558594 326.730469 753.105469 327.378906 753.359375 328.011719 C 754.894531 331.832031 755.332031 335.863281 755.679688 339.917969 C 755.765625 340.929688 756.285156 341.894531 756.480469 342.90625 C 756.945312 345.277344 757.390625 347.652344 756.65625 350.070312 C 756.511719 350.550781 756.441406 351.164062 756.605469 351.613281 C 758.515625 356.785156 757.382812 362.363281 758.75 367.585938 C 759.285156 369.648438 759.875 371.765625 760.882812 373.617188 C 762.785156 377.101562 762.015625 381.46875 764.71875 384.65625 C 765.003906 384.992188 765.007812 385.632812 765.007812 386.132812 C 765.011719 388.867188 764.976562 391.605469 764.960938 394.339844 C 764.960938 394.503906 764.992188 394.703125 765.085938 394.828125 C 766.988281 397.3125 766.179688 400.085938 765.992188 402.804688 C 765.960938 403.265625 766.234375 403.753906 766.371094 404.226562 C 766.699219 405.339844 767.289062 406.445312 767.304688 407.5625 C 767.34375 410.027344 766.582031 412.609375 767.089844 414.933594 C 767.777344 418.0625 767.085938 421.089844 767.367188 424.121094 C 767.683594 427.53125 768.011719 430.757812 767.082031 434.238281 C 766.257812 437.3125 766.84375 440.746094 766.589844 444 C 766.472656 445.476562 765.859375 446.917969 765.40625 448.355469 C 764.972656 449.714844 764.054688 451.050781 764.066406 452.386719 C 764.085938 454.269531 763.058594 455.550781 762.402344 457.082031 C 761.414062 459.378906 760.660156 461.773438 759.769531 464.109375 C 758.675781 466.988281 757.492188 469.832031 756.457031 472.726562 C 755.910156 474.25 755.601562 475.855469 755.175781 477.421875 C 754.242188 480.847656 754.332031 484.667969 751.289062 487.289062 C 750.867188 487.652344 750.75 488.359375 750.457031 488.886719 C 750.035156 489.640625 749.742188 490.566406 749.117188 491.089844 C 744.726562 494.746094 742.554688 500.003906 739.238281 504.425781 C 736.554688 508 733.382812 511.25 730.15625 514.363281 C 727.753906 516.683594 724.917969 518.558594 722.273438 520.628906 C 722.003906 520.835938 721.722656 521.105469 721.410156 521.179688 C 718.898438 521.765625 716.796875 523.230469 714.503906 524.265625 C 711.304688 525.710938 708.605469 527.742188 705.78125 529.714844 C 703.902344 531.027344 701.617188 531.761719 699.507812 532.734375 C 696.925781 533.925781 694.335938 535.101562 691.746094 536.277344 C 691.433594 536.417969 691.0625 536.664062 690.777344 536.601562 C 688.089844 536.007812 685.519531 536.347656 682.875 537.074219 C 680.859375 537.628906 678.636719 537.4375 676.597656 537.9375 C 674.027344 538.570312 671.429688 539.328125 669.0625 540.484375 C 667.128906 541.425781 665.398438 541.386719 663.601562 540.628906 C 662.292969 540.074219 661.160156 540.035156 659.894531 540.746094 C 659.257812 541.101562 658.402344 541.054688 657.679688 541.292969 C 655.65625 541.945312 653.691406 542.820312 651.632812 543.296875 C 649.054688 543.894531 646.394531 544.132812 643.789062 544.621094 C 640.566406 545.21875 637.160156 544.511719 634.078125 546.378906 C 632.964844 547.058594 631.261719 546.890625 629.828125 546.886719 C 627.4375 546.882812 625.042969 546.644531 622.648438 546.613281 C 621.625 546.597656 620.554688 546.726562 619.578125 547.023438 C 617.265625 547.71875 615.152344 547.136719 613.035156 546.308594 C 612.5625 546.121094 612.078125 545.839844 611.59375 545.828125 C 608.246094 545.746094 604.898438 545.738281 601.550781 545.667969 C 601.058594 545.65625 600.550781 545.472656 600.078125 545.296875 C 597.191406 544.210938 594.261719 543.664062 591.144531 543.347656 C 587.039062 542.929688 582.765625 542.972656 578.832031 541.15625 C 577.847656 540.703125 576.453125 540.792969 575.332031 541.027344 C 572.953125 541.527344 570.816406 541.101562 568.621094 540.183594 C 566.644531 539.355469 564.613281 538.796875 562.332031 539.492188 C 561.199219 539.839844 559.816406 539.316406 558.542969 539.296875 C 557.125 539.277344 555.699219 539.472656 554.285156 539.410156 C 553.210938 539.359375 551.957031 539.335938 551.117188 538.789062 C 549.664062 537.84375 548.140625 537.734375 546.660156 538.042969 C 544.324219 538.527344 542.269531 537.9375 540.128906 537.167969 C 536.84375 535.988281 533.523438 534.898438 530.160156 533.980469 C 526.085938 532.867188 522.363281 531.003906 518.628906 529.113281 C 516.484375 528.023438 514.175781 527.253906 512.03125 526.15625 C 509.046875 524.625 506.164062 522.886719 503.199219 521.308594 C 502.078125 520.710938 500.734375 520.480469 499.6875 519.789062 C 494.875 516.625 489.820312 513.796875 485.84375 509.46875 C 484.214844 507.699219 482.082031 506.398438 480.414062 504.65625 C 476.308594 500.363281 473.25 495.503906 472.222656 489.460938 C 471.796875 486.953125 470.578125 484.582031 469.761719 482.136719 C 469.519531 481.414062 469.0625 480.484375 469.316406 479.917969 C 470.910156 476.332031 469.238281 472.890625 469.042969 469.390625 C 468.871094 466.34375 468.609375 463.304688 468.453125 460.253906 C 468.429688 459.773438 468.65625 459.203125 468.945312 458.800781 C 469.777344 457.640625 469.574219 456.433594 469.542969 455.109375 C 469.511719 453.570312 470.128906 452.015625 470.503906 450.476562 C 470.640625 449.910156 470.890625 449.367188 471.234375 448.414062 Z M 570.199219 426.46875 C 573.796875 426.082031 577.265625 425.363281 580.710938 426.671875 C 583.136719 425.574219 585.257812 426.761719 587.410156 427.589844 C 591.503906 429.167969 595.722656 430.511719 599.609375 432.496094 C 601.734375 433.582031 603.386719 435.691406 605.035156 437.539062 C 605.519531 438.078125 605.503906 439.386719 605.214844 440.152344 C 605.082031 440.507812 603.710938 440.597656 602.953125 440.484375 C 599.21875 439.917969 595.269531 440.621094 591.8125 438.296875 C 590.589844 437.46875 588.898438 437.332031 587.425781 436.878906 C 586.871094 436.707031 586.332031 436.421875 585.769531 436.371094 C 582.375 436.0625 578.929688 436.066406 575.589844 435.464844 C 571.609375 434.75 567.777344 434.574219 563.898438 435.910156 C 562.539062 436.378906 561.003906 436.660156 559.582031 436.5625 C 557.082031 436.390625 554.613281 435.847656 552.292969 437.328125 C 551.988281 437.519531 551.453125 437.3125 551.03125 437.355469 C 550.003906 437.464844 548.9375 437.476562 547.960938 437.777344 C 544.671875 438.789062 541.269531 439.605469 538.195312 441.082031 C 535.429688 442.410156 531.964844 442.113281 529.773438 444.753906 C 529.53125 445.042969 528.832031 444.996094 528.339844 445.03125 C 523.773438 445.34375 519.101562 445.121094 515.035156 447.867188 C 514.515625 448.21875 513.734375 448.246094 513.0625 448.308594 C 509.90625 448.605469 506.746094 448.867188 503.582031 449.117188 C 502.988281 449.164062 502.378906 449.054688 501.777344 449.097656 C 500.789062 449.160156 499.691406 449.046875 498.839844 449.441406 C 497.070312 450.257812 495.546875 450.066406 493.996094 449.027344 C 492.894531 448.289062 491.769531 447.710938 490.421875 448.617188 C 490.050781 448.867188 489.453125 448.789062 488.957031 448.828125 C 487.503906 448.9375 486.042969 448.96875 484.601562 449.140625 C 483.109375 449.320312 482.054688 449.890625 481.996094 451.730469 C 481.933594 453.601562 481.84375 455.589844 481.183594 457.300781 C 478.996094 462.980469 479.699219 468.460938 481.761719 473.945312 C 482.515625 475.945312 483.199219 477.890625 483.453125 480.117188 C 483.746094 482.671875 483.566406 485.457031 485.183594 487.828125 C 488.007812 491.972656 489.433594 497.105469 494.113281 499.9375 C 495.160156 500.570312 495.746094 501.925781 496.644531 502.851562 C 497.339844 503.574219 498.125 504.265625 498.984375 504.773438 C 502.996094 507.128906 507.113281 509.300781 511.046875 511.773438 C 512.714844 512.820312 514.128906 514.136719 516.195312 514.511719 C 517.144531 514.6875 517.957031 515.554688 518.855469 516.066406 C 520.339844 516.917969 521.785156 517.886719 523.359375 518.519531 C 524.683594 519.054688 526.1875 519.109375 527.578125 519.507812 C 529.882812 520.167969 532.183594 520.878906 534.445312 521.671875 C 536.058594 522.238281 537.578125 523.058594 539.1875 523.621094 C 541.429688 524.40625 543.679688 525.261719 545.996094 525.730469 C 550.78125 526.703125 555.875 524.800781 560.535156 527.203125 C 560.605469 527.242188 560.703125 527.230469 560.792969 527.234375 C 563.378906 527.328125 565.964844 527.402344 568.546875 527.527344 C 569.402344 527.566406 570.246094 527.742188 571.097656 527.855469 C 573.117188 528.121094 575.128906 528.433594 577.15625 528.640625 C 578.777344 528.804688 580.5 528.539062 582.027344 528.988281 C 587.527344 530.609375 593.050781 531.699219 598.816406 531.023438 C 599.484375 530.945312 600.238281 531.003906 600.863281 531.238281 C 603.601562 532.265625 606.375 533.023438 609.320312 533.261719 C 611.96875 533.476562 614.578125 534.195312 617.222656 534.429688 C 619.191406 534.601562 621.199219 534.40625 623.183594 534.285156 C 626.089844 534.113281 628.882812 532.34375 631.945312 533.902344 C 632.578125 534.222656 633.722656 533.515625 634.640625 533.316406 C 636.289062 532.957031 637.941406 532.621094 639.59375 532.28125 C 642.6875 531.640625 645.949219 531.765625 648.828125 530.105469 C 649.613281 529.648438 650.734375 529.179688 651.507812 529.402344 C 655.023438 530.410156 658.101562 528.484375 661.394531 528.113281 C 664.257812 527.789062 666.976562 526.472656 670.011719 526.867188 C 670.945312 526.988281 671.960938 526.257812 672.96875 526.074219 C 674.609375 525.773438 676.277344 525.597656 677.933594 525.382812 C 678.851562 525.265625 679.898438 525.429688 680.667969 525.035156 C 684.351562 523.144531 688.265625 522.285156 692.351562 521.914062 C 693.492188 521.808594 694.617188 521.253906 695.691406 520.777344 C 697.011719 520.191406 698.253906 519.441406 699.554688 518.8125 C 702.1875 517.546875 704.964844 516.527344 707.441406 515.011719 C 709.890625 513.507812 711.832031 511.070312 714.382812 509.863281 C 716.957031 508.644531 718.71875 506.816406 720.386719 504.765625 C 721.496094 503.390625 722.285156 501.757812 723.316406 500.316406 C 724.042969 499.300781 725.101562 498.503906 725.730469 497.441406 C 730.09375 490.074219 735.488281 483.371094 739.570312 475.824219 C 741.03125 473.117188 742.90625 470.632812 744.390625 467.9375 C 745.207031 466.453125 745.652344 464.753906 746.171875 463.125 C 746.851562 461.007812 747.390625 458.84375 748.082031 456.730469 C 748.90625 454.207031 749.925781 451.746094 750.671875 449.203125 C 751.246094 447.238281 751.351562 445.132812 751.984375 443.191406 C 752.757812 440.800781 753.5625 438.511719 753.007812 435.917969 C 752.683594 434.417969 752.414062 432.75 752.738281 431.296875 C 753.585938 427.519531 752.128906 423.773438 753.1875 419.875 C 753.949219 417.070312 752.523438 413.746094 752.644531 410.671875 C 752.804688 406.757812 752.914062 403.003906 751.230469 399.289062 C 750.527344 397.746094 751.066406 395.679688 750.519531 394.023438 C 749.347656 390.449219 748.878906 386.824219 748.78125 383.097656 C 748.757812 382.292969 748.488281 381.191406 747.925781 380.761719 C 745.371094 378.808594 745.367188 376.003906 745.164062 373.273438 C 744.890625 369.679688 745.253906 366 743.148438 362.730469 C 742.785156 362.164062 742.980469 361.222656 742.964844 360.453125 C 742.914062 357.539062 742.910156 354.625 742.820312 351.710938 C 742.785156 350.597656 742.570312 349.492188 742.421875 348.382812 C 741.773438 343.535156 741.125 338.691406 740.460938 333.84375 C 740.429688 333.597656 740.3125 333.339844 740.167969 333.132812 C 738.878906 331.257812 739.308594 329.140625 739.277344 327.082031 C 739.265625 326.1875 739.371094 325.191406 739.027344 324.417969 C 738.242188 322.65625 738.316406 320.941406 738.726562 319.148438 C 738.863281 318.570312 739.128906 317.808594 738.886719 317.394531 C 737.625 315.222656 737.941406 312.9375 738.042969 310.617188 C 738.113281 308.988281 737.8125 307.347656 737.738281 305.710938 C 737.535156 301.1875 737.359375 296.660156 737.195312 292.136719 C 737.183594 291.804688 737.414062 291.476562 737.464844 291.136719 C 737.792969 289.019531 738.4375 286.941406 737.417969 284.773438 C 737.105469 284.109375 737.308594 283.035156 737.613281 282.28125 C 738.527344 280.011719 738.445312 277.753906 738.109375 275.394531 C 737.820312 273.363281 737.8125 271.289062 737.746094 269.234375 C 737.644531 266.203125 737.90625 263.125 737.4375 260.15625 C 737.050781 257.707031 737.3125 255.585938 738.214844 253.347656 C 738.597656 252.402344 738.449219 251.203125 738.378906 250.128906 C 738.175781 246.957031 738.011719 243.777344 737.605469 240.628906 C 736.957031 235.648438 738.351562 230.292969 734.960938 225.789062 C 734.738281 225.492188 734.835938 224.953125 734.78125 224.527344 C 734.414062 221.832031 734.585938 218.898438 733.542969 216.492188 C 732.074219 213.097656 731.421875 209.371094 729.109375 206.265625 C 726.75 203.09375 725.5625 199.078125 722.070312 196.695312 C 721.304688 196.175781 720.753906 195.328125 720.136719 194.601562 C 718.976562 193.242188 717.890625 191.8125 716.679688 190.5 C 715.464844 189.179688 714.339844 187.34375 712.808594 186.835938 C 708.6875 185.46875 705.046875 182.839844 700.398438 182.710938 C 697.1875 182.625 694.019531 181.332031 690.804688 180.71875 C 683.867188 179.394531 676.9375 178.035156 669.960938 176.96875 C 668.109375 176.6875 666.050781 177.214844 664.1875 177.734375 C 660.984375 178.625 658.652344 181.03125 656.007812 182.890625 C 653.171875 184.882812 649.976562 186.488281 648.921875 190.199219 C 648.878906 190.355469 648.746094 190.503906 648.625 190.621094 C 645.730469 193.417969 645.152344 197.5 643.015625 200.726562 C 642.21875 201.933594 641.898438 203.445312 641.292969 204.785156 C 640.894531 205.65625 640.976562 206.253906 641.558594 207.117188 C 642.851562 209.039062 644.203125 211.054688 644.019531 213.535156 C 643.863281 215.652344 644.605469 217.289062 645.796875 219.023438 C 647.183594 221.042969 648.210938 223.273438 646.820312 225.992188 C 646.015625 227.566406 645.570312 229.332031 646.027344 231.421875 C 646.652344 234.269531 645.933594 237.113281 643.230469 238.992188 C 642.824219 239.277344 642.207031 239.757812 642.238281 240.101562 C 642.441406 242.339844 640.851562 243.898438 640.179688 245.789062 C 638.796875 249.679688 636.167969 252.769531 632.578125 254.613281 C 629.859375 256.015625 626.703125 256.578125 623.710938 257.421875 C 622.457031 257.777344 621.796875 258.324219 621.84375 259.75 C 621.921875 262.082031 621.851562 264.421875 621.773438 266.757812 C 621.722656 268.199219 621.539062 269.636719 621.441406 270.785156 C 623.082031 271.761719 624.476562 272.5625 625.84375 273.410156 C 627.171875 274.234375 628.433594 274.613281 630.144531 274.539062 C 632.074219 274.460938 634.398438 275.015625 635.933594 276.136719 C 639.90625 279.039062 644.464844 281.394531 646.886719 286.042969 C 647.039062 286.332031 647.351562 286.5625 647.632812 286.757812 C 651.492188 289.402344 653.589844 293.597656 656.632812 296.960938 C 656.75 297.085938 656.824219 297.25 656.914062 297.398438 C 658.691406 300.382812 659.652344 303.8125 662.070312 306.460938 C 663.457031 307.976562 664.632812 309.695312 665.84375 311.367188 C 668.058594 314.414062 670.300781 317.449219 672.378906 320.589844 C 673.0625 321.621094 673.226562 322.988281 673.726562 324.15625 C 674.328125 325.558594 674.996094 326.933594 675.714844 328.277344 C 676.199219 329.183594 677.019531 329.941406 677.355469 330.886719 C 678.761719 334.859375 680.078125 338.867188 681.367188 342.882812 C 682.445312 346.246094 683.425781 349.582031 685.335938 352.671875 C 687.457031 356.105469 688.738281 359.902344 688.816406 364.140625 C 688.863281 366.636719 690.023438 369.113281 690.714844 371.589844 C 690.804688 371.90625 691.066406 372.191406 691.304688 372.441406 C 692.816406 374.039062 692.734375 376.058594 692.796875 378.035156 C 692.8125 378.546875 692.484375 379.207031 692.703125 379.542969 C 694.445312 382.199219 693.46875 385.210938 693.855469 388.03125 C 694.292969 391.179688 694.34375 394.382812 694.476562 397.566406 C 694.601562 400.554688 695.019531 403.609375 694.585938 406.527344 C 693.761719 412.089844 691.851562 417.417969 689.136719 422.324219 C 687.660156 424.996094 685.53125 427.425781 683.285156 429.527344 C 680.652344 431.992188 677.652344 434.097656 674.664062 436.144531 C 671.402344 438.375 667.859375 439.804688 663.773438 438.441406 C 662.046875 437.863281 660.460938 437.917969 658.871094 439.097656 C 657.160156 440.359375 655.148438 440.574219 652.96875 440.519531 C 648.730469 440.414062 644.617188 439.84375 640.511719 438.78125 C 635.683594 437.53125 630.761719 436.660156 625.917969 435.46875 C 624.351562 435.082031 622.945312 434.070312 621.390625 433.589844 C 616.457031 432.058594 611.640625 430.164062 606.398438 429.679688 C 603.082031 429.371094 599.808594 428.492188 596.542969 427.761719 C 594.453125 427.296875 592.339844 426.816406 590.367188 426.019531 C 587.339844 424.800781 584.445312 423.265625 581.460938 421.945312 C 579.527344 421.09375 577.53125 420.394531 575.851562 419.734375 C 573.882812 422.078125 572.042969 424.273438 570.199219 426.46875 Z M 276.335938 480.800781 C 277.203125 480.355469 277.605469 480.199219 277.957031 479.964844 C 283.105469 476.519531 288.183594 472.957031 293.410156 469.640625 C 299.113281 466.019531 305.054688 462.808594 310.429688 458.65625 C 312.855469 456.78125 315.777344 455.558594 318.445312 453.992188 C 319.773438 453.214844 321.042969 452.339844 322.328125 451.492188 C 324.707031 449.921875 326.988281 448.175781 329.472656 446.796875 C 333.171875 444.746094 337.023438 442.96875 340.773438 441.015625 C 341.425781 440.675781 342.332031 440.085938 342.40625 439.515625 C 342.792969 436.605469 344.539062 434.433594 346.160156 432.230469 C 348.332031 429.285156 348.730469 425.160156 352.246094 423.125 C 354.320312 418.636719 358.675781 416.292969 362.070312 413.105469 C 363.519531 411.746094 365.386719 410.625 366.875 409.140625 C 367.152344 408.859375 367.667969 408.824219 368.058594 408.640625 C 370.003906 407.746094 372.0625 407.101562 373.445312 405.226562 C 373.972656 404.511719 374.953125 403.910156 375.828125 403.714844 C 378.925781 403.019531 381.941406 402.351562 384.796875 400.730469 C 386.859375 399.554688 389.574219 399.578125 391.769531 398.574219 C 394.925781 397.128906 397.929688 395.410156 401.542969 395.484375 C 401.789062 395.488281 402.117188 395.421875 402.277344 395.261719 C 404.339844 393.1875 406.90625 392.710938 409.710938 392.527344 C 411.550781 392.40625 413.328125 391.503906 415.171875 391.265625 C 417.023438 391.023438 418.949219 391.355469 420.800781 391.113281 C 425.488281 390.496094 430.167969 389.800781 434.8125 388.941406 C 437.929688 388.367188 440.949219 387.046875 444.070312 386.789062 C 449.230469 386.359375 454.191406 385.027344 459.25 384.144531 C 461.953125 383.675781 464.582031 382.570312 467.289062 382.382812 C 469.515625 382.222656 471.488281 381.753906 473.417969 380.746094 C 473.9375 380.472656 474.570312 380.324219 475.160156 380.285156 C 479.078125 380.019531 483 379.761719 486.921875 379.601562 C 487.6875 379.570312 488.476562 379.96875 489.527344 380.242188 C 488.414062 381.785156 487.582031 382.984375 486.703125 384.148438 C 483.570312 388.292969 479.617188 391.109375 474.320312 391.726562 C 469.253906 392.320312 464.980469 395.800781 459.730469 395.726562 C 459.660156 395.726562 459.589844 395.855469 459.515625 395.859375 C 455.554688 396.078125 452.304688 399.457031 448.058594 398.464844 C 447.800781 398.40625 447.390625 398.644531 447.167969 398.863281 C 445.890625 400.144531 444.429688 400.449219 442.699219 399.972656 C 442.296875 399.863281 441.78125 400.222656 441.308594 400.335938 C 439.867188 400.675781 438.421875 401.003906 436.976562 401.324219 C 436.488281 401.433594 435.875 401.359375 435.515625 401.628906 C 434.015625 402.75 432.363281 402.289062 430.746094 402.238281 C 430.078125 402.214844 429.386719 402.046875 428.75 402.171875 C 423.292969 403.246094 417.84375 404.371094 412.394531 405.476562 C 412.058594 405.546875 411.714844 405.625 411.378906 405.621094 C 408.671875 405.566406 406.164062 406.195312 403.757812 407.484375 C 402.730469 408.03125 401.460938 408.363281 400.296875 408.371094 C 396.523438 408.402344 393.722656 410.96875 390.34375 411.984375 C 390.050781 412.074219 389.75 412.375 389.59375 412.660156 C 388.589844 414.480469 386.976562 414.597656 385.160156 414.40625 C 384.558594 414.339844 383.878906 414.5625 383.296875 414.804688 C 382.386719 415.183594 381.542969 415.730469 380.640625 416.132812 C 379.78125 416.515625 378.84375 416.734375 378.011719 417.15625 C 376.585938 417.878906 375.285156 418.910156 373.800781 419.441406 C 370.644531 420.578125 367.910156 422.210938 365.65625 424.742188 C 363.671875 426.972656 361.425781 428.96875 359.4375 431.199219 C 358.328125 432.445312 357.777344 434.304688 356.503906 435.265625 C 354.40625 436.847656 353.570312 439.003906 352.683594 441.234375 C 352.054688 442.824219 351.863281 444.929688 350.710938 445.902344 C 348.160156 448.066406 347.503906 451.003906 346.777344 453.832031 C 345.816406 457.5625 345.277344 461.429688 344.867188 465.273438 C 344.578125 467.992188 344.949219 470.777344 344.769531 473.515625 C 344.429688 478.757812 343.828125 483.980469 343.480469 489.222656 C 343.289062 492.058594 343.769531 494.976562 343.28125 497.742188 C 342.578125 501.707031 342.84375 505.546875 343.492188 509.4375 C 343.621094 510.203125 343.671875 510.984375 343.714844 511.761719 C 344.019531 517.609375 344.28125 523.460938 344.667969 529.304688 C 344.703125 529.828125 345.5 530.675781 346.019531 530.734375 C 349.179688 531.085938 352.359375 531.253906 355.652344 531.496094 C 356.039062 530.28125 356.613281 529.304688 356.605469 528.332031 C 356.578125 525.609375 356.242188 522.890625 356.15625 520.167969 C 356.066406 517.171875 356 514.167969 356.136719 511.179688 C 356.246094 508.738281 356.378906 506.351562 357.042969 503.875 C 358.148438 499.777344 358.191406 495.402344 358.847656 491.167969 C 359.019531 490.074219 359.855469 489.089844 360.316406 488.023438 C 360.675781 487.191406 361.222656 486.292969 361.167969 485.457031 C 361.054688 483.597656 361.417969 481.996094 362.148438 480.253906 C 363.046875 478.109375 364.339844 475.863281 363.40625 473.300781 C 363.308594 473.035156 363.480469 472.601562 363.652344 472.320312 C 365.824219 468.710938 368.015625 465.109375 370.21875 461.519531 C 370.394531 461.230469 370.695312 461.015625 370.941406 460.773438 C 374.066406 457.695312 377.25 454.671875 380.304688 451.527344 C 384.40625 447.304688 389.554688 444.996094 395.050781 443.386719 C 397.882812 442.554688 400.84375 442.144531 403.757812 441.582031 C 407.792969 440.800781 411.707031 439.179688 415.949219 439.796875 C 416.367188 439.855469 416.828125 439.78125 417.238281 439.664062 C 419.351562 439.050781 421.449219 438.839844 423.617188 439.488281 C 424.101562 439.632812 424.738281 439.3125 425.292969 439.167969 C 426.367188 438.882812 427.421875 438.355469 428.503906 438.308594 C 430.285156 438.234375 432.082031 438.492188 433.871094 438.542969 C 439.523438 438.710938 445.007812 437.507812 450.515625 436.488281 C 451.152344 436.367188 451.847656 436.542969 452.511719 436.589844 C 456.285156 436.839844 460.074219 437.4375 463.824219 437.246094 C 466.917969 437.089844 470.152344 438.195312 473.144531 436.570312 C 473.257812 436.511719 473.46875 436.671875 473.640625 436.6875 C 475.351562 436.832031 477.070312 437.113281 478.78125 437.074219 C 484.632812 436.949219 490.5 437.757812 496.351562 436.878906 C 496.996094 436.78125 497.699219 437.164062 498.378906 437.199219 C 500.773438 437.324219 503.226562 437.765625 505.546875 437.398438 C 508.996094 436.855469 512.355469 435.726562 515.753906 434.839844 C 517.421875 434.402344 519.074219 433.917969 520.75 433.523438 C 521.476562 433.351562 522.238281 433.359375 522.980469 433.257812 C 525.820312 432.878906 528.699219 432.667969 531.488281 432.046875 C 534.5 431.375 537.425781 430.3125 540.390625 429.417969 C 541.203125 429.171875 542.066406 429.023438 542.8125 428.640625 C 544.792969 427.617188 546.652344 426.320312 548.695312 425.453125 C 552.867188 423.679688 557.214844 422.304688 561.316406 420.394531 C 563.746094 419.265625 565.851562 417.425781 568.09375 415.902344 C 568.148438 415.863281 568.140625 415.742188 568.167969 415.632812 C 565.3125 414.121094 562.414062 412.671875 559.601562 411.070312 C 558.199219 410.273438 556.960938 409.191406 555.632812 408.265625 C 554.722656 407.628906 553.820312 406.960938 552.847656 406.433594 C 550.582031 405.203125 548.246094 404.089844 545.992188 402.84375 C 544.648438 402.097656 543.40625 401.171875 542.097656 400.363281 C 541.320312 399.886719 540.449219 399.546875 539.707031 399.027344 C 537.25 397.304688 534.929688 395.367188 532.378906 393.808594 C 528.789062 391.613281 525.628906 388.785156 523.195312 385.566406 C 521.601562 383.457031 519.714844 381.980469 517.832031 380.355469 C 517.058594 379.683594 516.011719 379.316406 515.285156 378.609375 C 512.582031 375.964844 509.832031 373.351562 507.34375 370.511719 C 505.160156 368.019531 502.921875 365.46875 502.332031 362.128906 C 499.679688 360.675781 496.019531 361.992188 494.476562 358.542969 C 490.105469 362.320312 486.632812 361.871094 483.679688 357.347656 C 483.488281 357.058594 483.347656 356.742188 483.183594 356.4375 C 482.046875 354.328125 480.910156 352.21875 479.773438 350.101562 C 476.539062 351.339844 473.449219 352.683594 470.261719 353.710938 C 464.976562 355.417969 459.628906 356.921875 454.308594 358.511719 C 453.148438 358.855469 452.011719 359.332031 450.828125 359.519531 C 445.859375 360.3125 441.058594 361.578125 436.636719 364.082031 C 435.984375 364.449219 435.183594 364.5625 434.441406 364.761719 C 431.113281 365.652344 427.734375 366.375 424.472656 367.46875 C 421.671875 368.40625 419.011719 369.773438 416.285156 370.933594 C 416.054688 371.03125 415.753906 370.96875 415.519531 371.054688 C 414.007812 371.625 412.515625 372.234375 411 372.796875 C 409.960938 373.183594 408.90625 373.542969 407.839844 373.859375 C 407.289062 374.023438 406.667969 373.988281 406.132812 374.1875 C 399.101562 376.796875 392.074219 379.433594 385.050781 382.066406 C 384.167969 382.394531 383.191406 382.605469 382.433594 383.128906 C 379.9375 384.851562 377.351562 386.363281 374.613281 387.703125 C 369.21875 390.34375 363.96875 393.28125 358.671875 396.121094 C 357.835938 396.570312 357.082031 397.160156 356.277344 397.664062 C 353.515625 399.382812 350.789062 401.164062 347.96875 402.785156 C 345.09375 404.4375 341.96875 405.699219 339.234375 407.546875 C 335.199219 410.269531 331.460938 413.378906 327.019531 415.535156 C 325.167969 416.4375 323.894531 418.460938 322.1875 419.753906 C 319.265625 421.96875 316.878906 424.855469 313.480469 426.484375 C 312.613281 426.894531 312.050781 427.941406 311.355469 428.707031 C 311.011719 429.085938 310.765625 429.613281 310.347656 429.851562 C 308.566406 430.875 306.6875 431.734375 304.949219 432.820312 C 303.875 433.488281 302.953125 434.425781 302.023438 435.304688 C 301.292969 435.992188 300.726562 436.871094 299.957031 437.511719 C 296.355469 440.503906 292.367188 443.113281 289.160156 446.476562 C 284.601562 451.265625 279.28125 455.328125 275.378906 460.75 C 274.628906 461.796875 273.757812 462.753906 272.996094 463.792969 C 271.734375 465.507812 270.476562 467.234375 269.304688 469.011719 C 269.074219 469.363281 269.027344 470.101562 269.242188 470.433594 C 270.214844 471.9375 271.296875 473.371094 272.371094 474.804688 C 272.777344 475.34375 273.351562 475.765625 273.707031 476.328125 C 274.589844 477.730469 275.394531 479.183594 276.335938 480.800781 Z M 627.910156 358.078125 C 627.605469 358.148438 627.300781 358.21875 626.992188 358.285156 C 626.628906 359.277344 626.257812 360.265625 625.898438 361.261719 C 625.464844 362.46875 625.179688 363.75 624.589844 364.871094 C 623.265625 367.390625 621.847656 369.867188 620.363281 372.296875 C 619.039062 374.460938 618.039062 376.851562 615.363281 377.988281 C 614.207031 378.480469 613.441406 379.902344 612.515625 380.917969 C 611.527344 382 610.554688 383.097656 609.585938 384.195312 C 608.28125 385.671875 607.054688 387.222656 605.671875 388.617188 C 604.542969 389.757812 603.285156 390.792969 601.988281 391.742188 C 601.054688 392.425781 599.964844 392.894531 598.46875 393.722656 C 600.160156 394.441406 601.464844 394.722656 602.425781 395.460938 C 604.230469 396.84375 606.140625 397.585938 608.40625 397.585938 C 609.0625 397.585938 609.726562 397.890625 610.367188 398.113281 C 612.390625 398.816406 614.375 399.644531 616.429688 400.242188 C 619.316406 401.085938 622.238281 401.832031 625.171875 402.5 C 628.679688 403.300781 632.195312 404.449219 635.742188 404.59375 C 640.285156 404.78125 644.863281 404.136719 649.421875 403.800781 C 649.90625 403.765625 650.359375 403.386719 650.839844 403.203125 C 654.5625 401.753906 656.113281 394.539062 654.804688 391.269531 C 653.277344 387.464844 651.253906 383.859375 649.394531 380.195312 C 649.175781 379.769531 648.460938 379.589844 648.269531 379.164062 C 646.714844 375.738281 644.089844 373.214844 641.382812 370.734375 C 640.125 369.582031 638.988281 368.292969 637.761719 367.101562 C 636.894531 366.265625 635.960938 365.5 635.074219 364.6875 C 632.683594 362.488281 630.296875 360.28125 627.910156 358.078125 Z M 601.363281 231.121094 C 600.863281 232.570312 600.164062 234.050781 599.851562 235.609375 C 599.28125 238.4375 598.929688 241.308594 598.515625 244.167969 C 598.355469 245.265625 598.425781 246.421875 598.121094 247.472656 C 596.824219 251.894531 597.742188 256.195312 598.675781 260.507812 C 598.757812 260.894531 598.960938 261.390625 599.269531 261.578125 C 601.355469 262.875 603.597656 263.804688 606.054688 262.921875 C 607.125 262.539062 608.050781 261.703125 608.976562 260.992188 C 610.546875 259.785156 612.601562 258.804688 613.472656 257.199219 C 614.75 254.832031 616.945312 253.632812 618.648438 251.851562 C 620.042969 250.398438 621.859375 249.546875 624.03125 249.800781 C 624.695312 249.878906 625.472656 249.875 626.050781 249.597656 C 629.28125 248.046875 632.035156 245.90625 633.804688 242.703125 C 634.886719 240.742188 634.367188 239.226562 632.566406 237.878906 C 631.65625 237.195312 630.265625 235.9375 630.429688 235.265625 C 631.042969 232.722656 629.519531 231.226562 628.402344 229.414062 C 627.421875 227.824219 626.128906 226.796875 624.519531 225.839844 C 621.1875 223.855469 616.984375 223.699219 614.144531 220.746094 C 613.882812 220.476562 613.339844 220.464844 612.921875 220.355469 C 611.269531 219.929688 609.613281 219.515625 607.550781 218.988281 C 606.515625 220.820312 605.367188 222.847656 604.265625 224.789062 C 605.785156 226.25 607.886719 226.84375 607.253906 229.074219 C 606.785156 230.714844 604.402344 231.535156 601.363281 231.121094 Z M 540.226562 373.277344 C 542.605469 371.574219 544.621094 371.847656 546.71875 373.238281 C 547.476562 373.742188 548.527344 373.78125 549.417969 374.109375 C 554.421875 375.957031 559.414062 377.84375 564.425781 379.683594 C 566.589844 380.480469 568.785156 381.191406 570.964844 381.941406 C 571.109375 381.722656 571.25 381.507812 571.390625 381.289062 C 556.863281 370.730469 547.609375 355.894531 538.082031 340.832031 C 536.308594 341.902344 534.59375 343.175781 532.683594 344.019531 C 530.757812 344.875 528.644531 345.308594 526.613281 345.925781 C 526.601562 346.113281 526.589844 346.300781 526.582031 346.488281 C 538.226562 351.691406 542.621094 360.597656 540.226562 373.277344 Z M 533.539062 384.582031 C 534.152344 383.890625 534.640625 383.304688 535.167969 382.753906 C 537.5625 380.25 539.742188 377.707031 537.625 373.921875 C 537.394531 373.511719 537.464844 372.90625 537.476562 372.394531 C 537.550781 368.597656 537.347656 364.851562 536.566406 361.101562 C 535.460938 355.824219 532.214844 352.746094 527.109375 350.816406 C 527.175781 353.066406 528.21875 354.550781 529.289062 355.972656 C 530.160156 357.132812 530.039062 358.09375 529.3125 359.277344 C 528.707031 360.265625 528.207031 361.40625 527.988281 362.539062 C 527.378906 365.703125 523.070312 370.242188 519.851562 370.71875 C 518.875 370.859375 517.820312 370.535156 516.8125 370.359375 C 516.007812 370.222656 515.222656 369.984375 514.425781 369.792969 C 519.457031 376.589844 526.6875 380.292969 533.539062 384.582031 Z M 501.785156 340.824219 C 500.363281 339.894531 499.140625 338.519531 497.566406 340.074219 C 496.304688 341.324219 494.859375 341.757812 493.148438 341.875 C 491.007812 342.023438 490.320312 343.550781 491.6875 345.210938 C 493.214844 347.0625 494.875 348.820312 496.585938 350.511719 C 498.226562 352.132812 499.988281 353.636719 501.730469 355.148438 C 503.085938 356.324219 504.339844 357.78125 505.917969 358.492188 C 509.660156 360.1875 513.5625 361.53125 517.417969 362.96875 C 518.300781 363.300781 519.324219 363.769531 520.164062 363.597656 C 521.597656 363.300781 523.421875 362.921875 524.210938 361.90625 C 525.730469 359.953125 525.015625 357.722656 522.921875 355.84375 C 520.878906 357.730469 517.886719 359.101562 516.03125 358.679688 C 515.128906 358.472656 514.109375 357.855469 513.601562 357.109375 C 512.917969 356.117188 513.570312 355.132812 514.503906 354.464844 C 515.742188 353.574219 516.992188 352.703125 518.222656 351.832031 C 516.355469 350.023438 514.144531 349.089844 511.589844 348.761719 C 510.714844 348.652344 509.851562 348.097656 509.09375 347.582031 C 508.476562 347.15625 508.027344 346.488281 507.5 345.921875 C 504.523438 348.929688 503.046875 349.367188 501.089844 347.882812 C 499.25 346.492188 499.332031 345.527344 501.785156 340.824219 Z M 490.136719 353.988281 C 489.933594 353.542969 489.789062 353.0625 489.523438 352.660156 C 487.542969 349.660156 486.414062 346.328125 485.730469 342.835938 C 485.621094 342.269531 485.589844 341.601562 485.789062 341.082031 C 486.8125 338.410156 489.726562 336.769531 492.609375 337.023438 C 493.605469 337.113281 494.976562 337.304688 495.574219 336.773438 C 498.535156 334.125 501.5 334.664062 504.59375 336.304688 C 505.898438 336.996094 507.195312 337.691406 508.496094 338.386719 C 508.101562 337.054688 507.609375 335.929688 506.859375 335.023438 C 506.355469 334.421875 505.511719 333.8125 504.769531 333.746094 C 501.382812 333.429688 497.980469 333.175781 494.582031 333.167969 C 493 333.164062 491.6875 333.027344 490.605469 331.398438 C 487.429688 333.164062 484.304688 334.902344 481.054688 336.710938 C 481.929688 343.644531 484.773438 349.457031 490.136719 353.988281 Z M 614.035156 266.949219 C 611.007812 268.078125 608.058594 269.464844 604.957031 270.246094 C 601.714844 271.0625 598.546875 270 595.617188 268.382812 C 595.289062 269.074219 595.070312 269.445312 594.925781 269.847656 C 594.246094 271.742188 593.410156 273.945312 595.011719 275.464844 C 596.921875 277.277344 599.324219 278.683594 602.257812 277.390625 C 605.074219 276.148438 607.976562 275.078125 610.714844 273.6875 C 613.761719 272.140625 614.613281 270.167969 614.035156 266.949219 Z M 614.035156 266.949219 " fill-opacity="1" fill-rule="nonzero"/></g><path fill="#ffffff" d="M 107.136719 576.714844 C 106.273438 577.007812 105.277344 577.113281 104.574219 577.628906 C 102.238281 579.339844 100.117188 579.128906 98.023438 577.273438 C 97.835938 577.109375 97.566406 577.039062 97.175781 576.84375 C 94.351562 579.4375 91.511719 578.289062 88.722656 576.589844 C 85.84375 574.832031 82.976562 573.058594 81.390625 569.875 C 81.242188 569.582031 80.972656 569.257812 80.679688 569.148438 C 77.457031 567.902344 75.835938 564.890625 74.210938 562.335938 C 72.109375 559.027344 69.078125 556.53125 67.109375 553.171875 C 66.652344 552.390625 65.722656 551.894531 65.035156 551.238281 C 64.417969 550.648438 63.496094 550.109375 63.296875 549.386719 C 62.34375 545.890625 59.492188 543.6875 57.714844 540.769531 C 57.183594 539.898438 56.914062 538.859375 56.347656 538.015625 C 54.921875 535.890625 53.492188 533.753906 51.878906 531.769531 C 50.484375 530.050781 48.566406 528.714844 47.367188 526.890625 C 45.378906 523.871094 43.886719 520.53125 41.988281 517.445312 C 40.367188 514.808594 38.457031 512.347656 36.710938 509.78125 C 35.851562 508.519531 35.070312 507.199219 34.273438 505.894531 C 34.09375 505.601562 34.058594 505.214844 33.855469 504.945312 C 30.996094 501.148438 28.117188 497.359375 24.851562 493.054688 C 24.378906 495 23.960938 496.355469 23.730469 497.738281 C 23.238281 500.6875 20.65625 502.574219 17.703125 502.109375 C 16.605469 501.9375 16.039062 501.375 15.851562 500.277344 C 15.050781 495.613281 14.050781 490.980469 14.355469 486.195312 C 14.515625 483.722656 14.492188 481.234375 14.671875 478.761719 C 14.796875 476.957031 13.914062 475.683594 12.578125 474.835938 C 10.757812 473.675781 9.972656 472.035156 9.285156 470.085938 C 8.203125 467.011719 6.785156 464.054688 5.496094 461.050781 C 5.292969 460.574219 4.839844 460.132812 4.828125 459.664062 C 4.761719 456.875 4.785156 454.082031 4.789062 451.289062 C 4.792969 450.945312 4.925781 450.597656 4.902344 450.257812 C 4.671875 447.019531 4.390625 443.78125 4.179688 440.539062 C 4.03125 438.230469 3.9375 435.914062 3.867188 433.597656 C 3.761719 430.070312 3.769531 426.539062 3.59375 423.019531 C 3.445312 420.117188 3.101562 417.226562 2.84375 414.328125 C 2.835938 414.242188 2.8125 414.15625 2.824219 414.070312 C 3.167969 410.945312 3.414062 407.800781 3.902344 404.695312 C 4.277344 402.292969 4.09375 400.136719 2.691406 398.058594 C 1.660156 396.535156 0.0195312 395.234375 0.351562 393.046875 C 0.425781 392.542969 0.339844 391.933594 0.59375 391.550781 C 2.796875 388.25 4.9375 384.816406 8.515625 382.832031 C 10.757812 381.59375 13.191406 380.671875 15.605469 379.789062 C 22.730469 377.179688 30.023438 374.96875 36.992188 371.992188 C 41.753906 369.957031 46.707031 369.273438 51.636719 368.21875 C 52.035156 368.136719 52.398438 367.890625 52.945312 367.640625 C 52.589844 367.128906 52.402344 366.546875 52.019531 366.355469 C 49.453125 365.070312 48.363281 362.421875 46.476562 360.550781 C 44.578125 358.667969 44.027344 355.628906 41.152344 354.59375 C 40.554688 354.378906 40.222656 353.394531 39.785156 352.757812 C 38.921875 351.496094 38.246094 350.058594 36.515625 349.691406 C 36.132812 349.609375 35.605469 349.28125 35.511719 348.957031 C 34.683594 346.171875 32.03125 345.753906 29.949219 344.742188 C 26.40625 343.015625 24.476562 338.25 26.136719 334.722656 C 27.964844 330.832031 28.664062 326.878906 27.019531 322.707031 C 26.769531 322.078125 26.949219 321.195312 27.152344 320.496094 C 27.4375 319.515625 28.46875 318.445312 28.253906 317.671875 C 27.210938 313.980469 29.683594 310.601562 28.726562 306.742188 C 28.097656 304.199219 29.675781 301.121094 30.207031 298.269531 C 30.789062 295.136719 32.484375 292.175781 31.34375 288.769531 C 31.023438 287.816406 31.503906 286.574219 31.703125 285.476562 C 32.050781 283.542969 32.472656 281.621094 32.84375 279.691406 C 32.90625 279.363281 32.96875 278.953125 32.832031 278.683594 C 31.308594 275.621094 32.109375 272.71875 33.296875 269.796875 C 33.574219 269.117188 33.914062 268.117188 33.625 267.617188 C 32.570312 265.804688 33.828125 264.476562 34.316406 262.996094 C 34.496094 262.4375 35.027344 261.980469 35.15625 261.421875 C 36.273438 256.566406 37.355469 251.703125 38.410156 246.832031 C 38.769531 245.164062 39.136719 243.484375 39.292969 241.789062 C 39.527344 239.269531 39.535156 236.726562 39.726562 234.199219 C 39.789062 233.367188 40.117188 232.558594 40.320312 231.738281 C 40.425781 231.324219 40.707031 230.84375 40.589844 230.507812 C 39.347656 226.976562 41.539062 224.070312 42.304688 220.921875 C 42.671875 219.425781 43.390625 218.015625 43.808594 216.527344 C 44.558594 213.867188 45.417969 211.328125 47.730469 209.511719 C 48.597656 208.832031 49.324219 208.59375 50.308594 209.085938 C 51.980469 209.917969 53.789062 210.535156 55.332031 211.558594 C 59.570312 214.375 63.402344 217.660156 66.875 221.429688 C 69.246094 224 72.171875 226.0625 74.800781 228.402344 C 75.945312 229.417969 76.953125 230.585938 78.058594 231.644531 C 79.03125 232.578125 80.066406 233.441406 81.050781 234.359375 C 82.121094 235.359375 83.144531 236.40625 84.222656 237.398438 C 86.359375 239.367188 88.535156 241.292969 90.660156 243.273438 C 92.101562 244.617188 93.460938 246.054688 94.910156 247.394531 C 97.925781 250.1875 100.976562 252.945312 104.019531 255.710938 C 104.277344 255.945312 104.683594 256.066406 104.839844 256.34375 C 106.816406 259.917969 110.457031 261.644531 113.425781 264.117188 C 113.691406 264.339844 114.035156 264.53125 114.1875 264.816406 C 116.488281 269.148438 120.941406 271.195312 124.285156 274.40625 C 127.167969 277.175781 130.460938 279.417969 133.199219 282.460938 C 135.488281 285.007812 137.539062 288.390625 141.300781 289.453125 C 141.535156 289.519531 141.757812 289.71875 141.933594 289.902344 C 145.316406 293.367188 149.503906 296.070312 151.671875 300.679688 C 152.484375 302.398438 153.792969 303.765625 155.933594 304.140625 C 158.214844 304.542969 159.8125 306.121094 160.484375 308.230469 C 161.050781 309.996094 161.125 311.945312 161.214844 313.824219 C 161.3125 315.875 161.121094 317.941406 161.160156 320 C 161.265625 325.832031 160.078125 331.421875 158.300781 336.953125 C 157.628906 339.050781 157.339844 341.339844 157.265625 343.554688 C 157.085938 348.859375 157.296875 354.179688 155.433594 359.296875 C 155.027344 360.410156 154.996094 361.675781 154.902344 362.878906 C 154.5625 367.242188 154.386719 371.617188 153.921875 375.964844 C 153.574219 379.179688 153.839844 382.410156 152.328125 385.601562 C 151.347656 387.675781 151.988281 390.496094 151.804688 392.976562 C 151.597656 395.796875 151.28125 398.613281 151.003906 401.429688 C 150.972656 401.765625 150.796875 402.121094 150.867188 402.425781 C 151.613281 405.65625 150.503906 408.742188 150.246094 411.894531 C 150.191406 412.605469 150.558594 413.699219 151.097656 414.050781 C 155.1875 416.703125 158.71875 419.953125 161.917969 423.605469 C 162.3125 424.054688 162.867188 424.363281 163.292969 424.792969 C 165.230469 426.753906 167.246094 428.644531 169.046875 430.722656 C 172.558594 434.761719 176.605469 438.324219 179.421875 443 C 180.726562 445.164062 182.882812 446.796875 184.554688 448.753906 C 186.851562 451.441406 189.222656 454.058594 190.316406 457.585938 C 190.605469 458.523438 191.683594 459.378906 192.609375 459.929688 C 194.101562 460.824219 194.9375 462.136719 195.121094 463.6875 C 195.488281 466.851562 195.574219 470.050781 195.792969 473.234375 C 195.910156 474.949219 195.976562 476.675781 196.210938 478.375 C 196.65625 481.601562 196.339844 484.597656 195.167969 487.746094 C 194.144531 490.503906 194.109375 493.660156 193.820312 496.660156 C 193.46875 500.339844 193.171875 504.035156 193.117188 507.726562 C 193.089844 509.59375 193.863281 511.464844 193.902344 513.34375 C 193.964844 516.28125 193.761719 519.230469 193.578125 522.167969 C 193.425781 524.671875 193.082031 527.167969 192.960938 529.671875 C 192.90625 530.765625 192.996094 531.945312 193.359375 532.960938 C 195.015625 537.585938 194.484375 542.355469 194.210938 547.042969 C 194.042969 549.898438 191.683594 551.179688 189.078125 552.203125 C 187.082031 552.988281 185.246094 554.4375 183.6875 555.949219 C 183.105469 556.511719 183.425781 558.09375 183.46875 559.203125 C 183.59375 562.386719 183.875 565.566406 183.929688 568.75 C 184 572.898438 178.949219 576.140625 175.082031 574.511719 C 173.441406 573.816406 171.902344 570.085938 172.476562 567.753906 C 173.214844 564.78125 173.449219 561.828125 172.875 558.433594 C 168.78125 559.671875 164.898438 561.027344 160.917969 561.988281 C 158.078125 562.675781 155.085938 562.707031 152.207031 563.269531 C 150.316406 563.636719 148.523438 564.480469 146.65625 565.015625 C 144.527344 565.625 142.359375 566.097656 140.226562 566.683594 C 137.335938 567.480469 134.398438 568.160156 131.597656 569.195312 C 128.859375 570.210938 126.277344 571.402344 123.246094 571.617188 C 121.292969 571.757812 119.421875 573.015625 117.515625 573.769531 C 117.039062 573.957031 116.558594 574.144531 116.21875 574.277344 C 116.21875 578.269531 115.917969 582.226562 116.316406 586.113281 C 116.625 589.140625 116.222656 592.128906 116.441406 595.089844 C 116.769531 599.539062 111.957031 602.140625 108.578125 601.503906 C 107.910156 601.378906 107.1875 600.550781 106.835938 599.871094 C 104.398438 595.097656 105.261719 590.175781 106.285156 585.242188 C 106.839844 582.578125 107.246094 579.882812 107.71875 577.203125 C 107.523438 577.039062 107.332031 576.878906 107.136719 576.714844 Z M 51.679688 221.574219 C 51.59375 223.046875 51.496094 224.132812 51.476562 225.214844 C 51.445312 226.679688 51.597656 228.160156 51.453125 229.609375 C 51.144531 232.675781 50.753906 235.738281 50.28125 238.785156 C 49.847656 241.574219 49.242188 244.339844 48.757812 247.125 C 48.554688 248.300781 48.433594 249.496094 48.355469 250.6875 C 48.1875 253.175781 48.382812 255.703125 47.003906 257.996094 C 46.628906 258.621094 46.636719 259.484375 46.515625 260.246094 C 45.859375 264.410156 45.335938 268.605469 44.511719 272.734375 C 44.230469 274.136719 44.179688 275.339844 44.433594 276.75 C 44.769531 278.636719 44.648438 280.617188 44.574219 282.554688 C 44.519531 283.890625 44.101562 285.214844 44.054688 286.550781 C 43.984375 288.59375 44.632812 290.820312 44.023438 292.652344 C 42.292969 297.851562 41.261719 303.144531 40.863281 308.578125 C 40.753906 310.097656 41.441406 311.925781 40.820312 313.117188 C 39.007812 316.585938 39.46875 320.34375 38.949219 323.949219 C 38.539062 326.808594 39.167969 329.820312 38.734375 332.671875 C 38.328125 335.3125 39.046875 336.816406 41.21875 338.269531 C 43.410156 339.738281 45.746094 341.429688 47.101562 343.601562 C 49.226562 347.011719 52.773438 349.417969 53.964844 353.460938 C 54.113281 353.972656 54.679688 354.53125 55.1875 354.738281 C 57.5625 355.71875 58.808594 357.84375 60.417969 359.621094 C 61.21875 360.503906 62.199219 361.234375 63.15625 361.960938 C 64.3125 362.839844 65.578125 363.582031 66.703125 364.5 C 68.488281 365.957031 70.105469 367.628906 71.960938 368.980469 C 73.324219 369.96875 74.957031 370.582031 76.488281 371.375 C 78.261719 368.367188 78.398438 365.105469 77.507812 361.761719 C 76.808594 359.128906 77.320312 356.671875 78.199219 354.183594 C 78.582031 353.085938 78.71875 351.875 78.785156 350.703125 C 79.015625 346.558594 78.949219 342.367188 80.578125 338.445312 C 80.996094 337.441406 81.609375 336.417969 82.398438 335.691406 C 83.65625 334.53125 86.539062 334.976562 87.140625 336.421875 C 88.097656 338.714844 89.066406 341.019531 88.894531 343.648438 C 88.71875 346.3125 88.605469 349.015625 88.855469 351.664062 C 89.078125 354.007812 89.386719 356.273438 88.558594 358.554688 C 88.410156 358.972656 88.546875 359.5625 88.714844 360.011719 C 90.449219 364.671875 89.644531 369.5625 89.8125 374.320312 C 89.960938 378.582031 89.121094 382.863281 93.773438 385.386719 C 94.0625 385.546875 94.316406 385.835938 94.503906 386.117188 C 95.609375 387.792969 97.273438 388.566406 99.042969 389.386719 C 100.878906 390.242188 102.484375 391.605469 104.167969 392.785156 C 105.847656 393.96875 107.492188 395.199219 109.160156 396.398438 C 109.785156 396.847656 110.613281 397.128906 111.035156 397.710938 C 112.339844 399.511719 114.1875 400.5 116 401.652344 C 117.867188 402.839844 119.34375 404.632812 121.167969 405.910156 C 125.269531 408.78125 129.453125 411.546875 133.667969 414.253906 C 135.207031 415.242188 136.9375 415.929688 138.59375 416.761719 C 138.863281 414.71875 138.867188 412.972656 139.375 411.386719 C 139.761719 410.179688 139.742188 409.148438 139.652344 407.925781 C 139.488281 405.574219 139.207031 403.238281 139.882812 400.808594 C 140.613281 398.175781 140.78125 395.355469 140.933594 392.601562 C 141.179688 387.992188 141.199219 383.371094 141.371094 378.753906 C 141.398438 378.101562 141.773438 377.464844 141.96875 376.8125 C 142.242188 375.914062 142.625 375.023438 142.738281 374.101562 C 143.378906 368.894531 143.929688 363.675781 144.570312 358.46875 C 144.683594 357.539062 145.1875 356.664062 145.335938 355.738281 C 145.613281 354.050781 146.199219 352.253906 145.871094 350.660156 C 145.074219 346.765625 145.773438 343.164062 147.050781 339.539062 C 147.351562 338.691406 147.355469 337.730469 147.425781 336.8125 C 147.523438 335.554688 147.390625 334.257812 147.652344 333.039062 C 148.316406 329.945312 149.167969 326.890625 149.875 323.804688 C 149.976562 323.355469 149.714844 322.808594 149.585938 322.316406 C 148.960938 319.976562 148.558594 317.65625 149.386719 315.242188 C 149.582031 314.671875 149.367188 313.640625 148.945312 313.230469 C 146.503906 310.855469 144.839844 307.804688 141.804688 305.898438 C 140.074219 304.816406 139.136719 302.550781 137.589844 301.085938 C 134.335938 298 130.941406 295.0625 127.554688 292.121094 C 125.34375 290.199219 122.730469 288.640625 120.878906 286.433594 C 118.714844 283.855469 116.019531 282.054688 113.515625 279.960938 C 112.273438 278.917969 111.113281 277.777344 109.953125 276.644531 C 108.480469 275.203125 107.082031 273.6875 105.589844 272.273438 C 102.882812 269.703125 100.121094 267.191406 97.402344 264.632812 C 97.097656 264.347656 96.9375 263.90625 96.675781 263.566406 C 96.367188 263.164062 96.066406 262.730469 95.679688 262.414062 C 92.585938 259.910156 89.3125 257.597656 86.40625 254.886719 C 83.582031 252.253906 81.140625 249.203125 78.5 246.367188 C 77.15625 244.925781 75.78125 243.507812 74.351562 242.152344 C 72.867188 240.746094 71.210938 239.507812 69.792969 238.035156 C 68.792969 236.996094 68.324219 235.148438 67.171875 234.613281 C 63.878906 233.074219 62 230.183594 59.621094 227.757812 C 59.148438 227.273438 58.519531 226.941406 57.980469 226.519531 C 56.046875 225.011719 54.121094 223.492188 51.679688 221.574219 Z M 13.0625 391.160156 C 13.222656 392.453125 13.722656 393.664062 13.425781 394.632812 C 12.75 396.832031 13.808594 398.332031 15.035156 399.773438 C 16.761719 401.804688 18.632812 403.710938 20.441406 405.671875 C 21.898438 407.257812 23.460938 408.757812 24.78125 410.449219 C 27.046875 413.347656 29.160156 416.367188 31.332031 419.339844 C 32.59375 421.070312 33.929688 422.757812 35.085938 424.558594 C 37.066406 427.632812 40.398438 429.609375 41.828125 433.164062 C 42.230469 434.167969 43.542969 434.78125 44.359375 435.652344 C 45.632812 437.015625 46.988281 438.34375 48.042969 439.867188 C 49.75 442.328125 51.191406 444.972656 52.84375 447.46875 C 53.839844 448.972656 54.921875 450.445312 56.152344 451.761719 C 59.4375 455.28125 62.8125 458.726562 66.175781 462.175781 C 68.140625 464.1875 69.890625 466.582031 72.214844 468.03125 C 75.230469 469.90625 76.097656 473.46875 78.910156 475.351562 C 82.035156 481.359375 86.546875 486.292969 91.183594 491.125 C 92.148438 492.132812 93.15625 492.3125 94.335938 491.300781 C 95.320312 490.46875 96.421875 489.746094 97.550781 489.117188 C 100.027344 487.742188 102.4375 486.132812 105.078125 485.203125 C 110.949219 483.128906 117.011719 481.773438 122.582031 478.675781 C 126.34375 476.585938 130.75 475.492188 134.992188 474.464844 C 140.039062 473.242188 144.574219 471.007812 148.835938 468.246094 C 150.261719 467.324219 151.636719 466.726562 153.210938 466.285156 C 154.597656 465.898438 155.933594 465.304688 157.257812 464.71875 C 158.351562 464.238281 159.359375 463.558594 160.460938 463.101562 C 165.289062 461.097656 170.136719 459.132812 174.992188 457.183594 C 176.148438 456.722656 177.351562 456.375 178.832031 455.871094 C 177.707031 454.679688 176.808594 453.878906 176.09375 452.941406 C 174.105469 450.335938 172.300781 447.578125 170.222656 445.050781 C 167.871094 442.1875 165.300781 439.507812 162.820312 436.75 C 161.613281 435.410156 160.300781 434.152344 159.210938 432.722656 C 156.410156 429.046875 153.195312 425.789062 149.34375 422.355469 C 149.03125 424.207031 148.871094 425.632812 148.539062 427.023438 C 148.265625 428.167969 148.085938 429.535156 147.351562 430.328125 C 145.144531 432.707031 138.921875 432.332031 136.914062 429.734375 C 136.042969 428.605469 134.96875 428.246094 133.777344 427.699219 C 130.632812 426.25 127.480469 424.707031 124.609375 422.789062 C 121.933594 421 119.972656 418.160156 116.570312 417.417969 C 116.285156 417.355469 116.058594 416.984375 115.828125 416.734375 C 114.417969 415.210938 112.183594 414.546875 111.417969 412.304688 C 111.25 411.816406 110.3125 411.574219 109.707031 411.257812 C 108.949219 410.859375 108.003906 410.660156 107.421875 410.089844 C 105.03125 407.734375 102.519531 405.660156 99.421875 404.203125 C 97.886719 403.484375 96.949219 401.125 95.449219 400.785156 C 92.5 400.121094 91.472656 397.835938 89.882812 395.933594 C 89.746094 395.773438 89.4375 395.757812 88.828125 395.539062 C 88.070312 398.09375 86.933594 400.539062 86.6875 403.070312 C 86.320312 406.839844 86.59375 410.671875 86.574219 414.476562 C 86.570312 416.175781 88.8125 419.410156 90.425781 419.617188 C 92.222656 419.84375 93.078125 421.019531 93.976562 422.320312 C 94.382812 422.914062 94.917969 423.578125 95.542969 423.828125 C 97.707031 424.683594 99.378906 426.070312 100.804688 427.878906 C 101.804688 429.148438 102.8125 430.765625 104.179688 431.320312 C 108.023438 432.878906 110.464844 435.800781 112.660156 439.027344 C 113.117188 439.703125 113.269531 440.925781 113 441.703125 C 111.730469 445.371094 109.421875 448.171875 105.671875 449.609375 C 104.550781 450.039062 103.445312 450.550781 102.394531 451.128906 C 99.765625 452.574219 97.199219 454.136719 94.546875 455.539062 C 93.261719 456.21875 91.828125 456.617188 90.484375 457.191406 C 88.273438 458.136719 86.089844 458.628906 83.773438 457.453125 C 83.105469 457.113281 82.265625 456.96875 81.507812 456.992188 C 79.769531 457.039062 78.667969 456.195312 77.566406 454.925781 C 74.921875 451.886719 72.289062 448.78125 68.460938 447.089844 C 64.40625 445.300781 62.140625 441.507812 59.386719 438.40625 C 58.042969 436.894531 56.402344 435.570312 55.246094 433.824219 C 54.53125 432.746094 52.921875 432.171875 52.421875 431.054688 C 51.054688 428.023438 48.886719 425.589844 47.035156 422.921875 C 46.253906 421.792969 45.8125 420.40625 44.9375 419.371094 C 42.609375 416.628906 42.96875 411.53125 45.851562 409.355469 C 47.917969 407.800781 50.320312 406.605469 52.113281 404.792969 C 54.3125 402.566406 56.582031 400.601562 59.335938 399.066406 C 63.890625 396.527344 67.105469 396.832031 70.703125 400.527344 C 72.050781 401.910156 73.441406 403.253906 75.066406 404.867188 C 75.445312 401.644531 75.804688 398.910156 76.085938 396.167969 C 76.40625 393.011719 76.640625 389.84375 76.953125 386.679688 C 77.078125 385.378906 76.628906 384.800781 75.257812 384.707031 C 72.933594 384.542969 70.539062 384.402344 69.695312 381.503906 C 69.554688 381.015625 68.863281 380.664062 68.390625 380.296875 C 65.796875 378.285156 63.195312 376.285156 60.742188 374.394531 C 59.417969 375.097656 58.214844 375.984375 56.867188 376.398438 C 53.414062 377.46875 49.886719 378.289062 46.410156 379.289062 C 44.53125 379.828125 42.703125 380.535156 40.851562 381.160156 C 37.519531 382.277344 34.195312 383.421875 30.847656 384.488281 C 28.804688 385.136719 26.679688 385.523438 24.671875 386.257812 C 22.328125 387.113281 20.074219 388.226562 17.773438 389.207031 C 16.203125 389.878906 14.617188 390.515625 13.0625 391.160156 Z M 185.808594 463.589844 C 184.777344 463.6875 184.339844 463.640625 183.96875 463.777344 C 180.753906 464.972656 177.554688 466.210938 174.339844 467.402344 C 173.128906 467.851562 171.808594 468.050781 170.675781 468.636719 C 164.722656 471.714844 158.855469 474.972656 152.867188 477.980469 C 149.800781 479.519531 146.519531 480.613281 143.371094 481.988281 C 138.648438 484.054688 134.195312 486.761719 129.113281 487.984375 C 128.785156 488.066406 128.496094 488.289062 128.179688 488.429688 C 125.980469 489.40625 123.816406 490.464844 121.578125 491.339844 C 118.472656 492.554688 115.316406 493.644531 112.171875 494.765625 C 109.992188 495.542969 107.792969 496.269531 105.609375 497.03125 C 102.316406 498.183594 99.027344 499.34375 95.960938 500.421875 C 96.472656 503.886719 97.140625 506.925781 97.316406 509.992188 C 97.488281 512.964844 97.296875 515.976562 96.996094 518.945312 C 96.628906 522.613281 96.769531 526.273438 97.957031 529.695312 C 99.738281 534.820312 100.207031 540.078125 100.402344 545.402344 C 100.492188 547.855469 101.648438 550.214844 100.96875 552.730469 C 100.890625 553.019531 101.175781 553.386719 101.226562 553.726562 C 101.648438 556.691406 101.996094 559.667969 102.492188 562.621094 C 102.835938 564.667969 101.847656 566.914062 103.449219 569.023438 C 106.472656 567.042969 109.652344 565.734375 113.222656 565.261719 C 117.449219 564.703125 120.90625 561.769531 125.3125 561.328125 C 128.675781 560.996094 132.03125 559.921875 135.058594 558.179688 C 135.28125 558.054688 135.539062 557.957031 135.792969 557.929688 C 142.023438 557.253906 147.609375 554.003906 154.035156 553.75 C 159.324219 553.542969 164.121094 550.546875 169.511719 549.933594 C 173.300781 549.5 176.960938 547.898438 180.667969 546.765625 C 183.28125 545.972656 184.035156 544.914062 184.179688 542.242188 C 184.457031 536.992188 184.8125 531.75 185.042969 526.503906 C 185.300781 520.644531 185.464844 514.777344 185.660156 508.917969 C 185.773438 505.589844 185.90625 502.261719 185.964844 498.933594 C 186 496.773438 185.953125 494.613281 185.878906 492.457031 C 185.828125 490.921875 185.679688 489.394531 185.566406 487.863281 C 185.417969 485.898438 185.828125 483.628906 184.976562 482.039062 C 183.644531 479.546875 184.199219 477.289062 184.488281 474.863281 C 184.6875 473.15625 185.019531 471.351562 184.6875 469.714844 C 184.265625 467.640625 184.238281 465.796875 185.808594 463.589844 Z M 86.136719 505.339844 C 84.515625 503.527344 83.175781 502.003906 81.804688 500.503906 C 80.882812 499.496094 79.832031 498.597656 78.992188 497.527344 C 77.9375 496.195312 77.046875 494.738281 76.078125 493.34375 C 75.207031 492.09375 74.386719 490.800781 73.429688 489.621094 C 72.460938 488.425781 71.199219 487.453125 70.339844 486.191406 C 68.585938 483.609375 67.066406 480.863281 63.96875 479.5625 C 63.554688 479.386719 63.292969 478.8125 63 478.394531 C 61.769531 476.632812 60.667969 474.765625 59.304688 473.117188 C 57.113281 470.46875 54.761719 467.949219 52.453125 465.398438 C 51.191406 463.996094 50.066406 462.355469 48.535156 461.339844 C 46.914062 460.261719 46.050781 458.78125 45.039062 457.285156 C 43.75 455.382812 42.320312 453.570312 40.925781 451.738281 C 39.890625 450.378906 38.726562 449.109375 37.777344 447.691406 C 36.199219 445.328125 34.84375 442.808594 33.214844 440.480469 C 30.203125 436.175781 27.15625 431.945312 23.503906 428.082031 C 20.304688 424.691406 18.101562 420.355469 15.472656 416.433594 C 15.230469 416.074219 15.074219 415.660156 14.875 415.269531 C 14.585938 415.382812 14.296875 415.496094 14.007812 415.605469 C 13.804688 418.574219 13.417969 421.539062 13.460938 424.503906 C 13.492188 426.886719 14.3125 429.261719 14.304688 431.636719 C 14.289062 435.84375 13.910156 440.050781 13.671875 444.253906 C 13.578125 445.882812 13.292969 447.515625 13.367188 449.132812 C 13.535156 452.886719 13.964844 456.632812 14.097656 460.386719 C 14.152344 461.96875 14.484375 463.234375 15.683594 464.304688 C 16.449219 464.992188 17.0625 465.855469 17.761719 466.621094 C 19.429688 468.449219 21.136719 470.242188 22.769531 472.101562 C 23.613281 473.066406 24.335938 474.144531 25.109375 475.175781 C 26.488281 477.019531 27.617188 479.140625 29.296875 480.652344 C 32.457031 483.503906 34.0625 487.441406 36.832031 490.570312 C 38.957031 492.976562 40.394531 495.996094 42.117188 498.753906 C 43.117188 500.347656 44.09375 501.957031 45.0625 503.574219 C 46.0625 505.242188 46.839844 507.085938 48.066406 508.566406 C 50.628906 511.667969 53.574219 514.464844 56.078125 517.609375 C 57.859375 519.855469 59.167969 522.476562 60.710938 524.910156 C 61.492188 526.140625 62.296875 527.359375 63.152344 528.539062 C 63.847656 529.496094 64.671875 530.359375 65.378906 531.3125 C 67.785156 534.5625 68.941406 538.609375 71.957031 541.488281 C 73.199219 542.671875 74.691406 543.890625 75.285156 545.402344 C 76.535156 548.59375 78.671875 550.878906 81.214844 552.996094 C 82.253906 553.859375 83.296875 554.988281 83.777344 556.214844 C 85.699219 561.101562 90.003906 564 93.363281 567.90625 C 93.609375 566.484375 93.730469 565.0625 93.585938 563.667969 C 93.234375 560.292969 91.574219 557.238281 91.535156 553.695312 C 91.5 550.585938 90.3125 547.5 89.78125 544.375 C 89.601562 543.316406 89.902344 542.179688 89.917969 541.078125 C 89.929688 540.34375 89.910156 539.589844 89.757812 538.878906 C 89.234375 536.453125 88.441406 534.070312 88.136719 531.625 C 87.667969 527.882812 87.539062 524.101562 87.226562 520.339844 C 87.050781 518.230469 86.246094 516.160156 87.605469 514.054688 C 88.003906 513.433594 87.570312 512.210938 87.394531 511.285156 C 86.992188 509.1875 86.511719 507.105469 86.136719 505.339844 Z M 86.597656 429.773438 C 87.117188 433.660156 85.230469 435.382812 82.640625 436.636719 C 81.707031 437.089844 80.792969 437.585938 79.839844 437.996094 C 77.539062 438.988281 76.324219 438.457031 75.589844 436.050781 C 75.265625 434.988281 74.988281 433.867188 74.96875 432.765625 C 74.917969 429.761719 74.71875 426.710938 75.128906 423.753906 C 75.535156 420.835938 74.238281 418.984375 72.351562 417.226562 C 71.058594 416.023438 69.851562 414.671875 68.378906 413.742188 C 67.53125 413.207031 66.988281 412.839844 66.671875 411.808594 C 65.753906 408.828125 62.792969 408.179688 60.402344 410.222656 C 59.363281 411.109375 58.164062 411.816406 56.984375 412.519531 C 51.851562 415.585938 51.816406 415.75 55.671875 420.3125 C 58.835938 424.054688 62.03125 427.773438 65.144531 431.558594 C 67.492188 434.410156 69.5 437.582031 72.078125 440.199219 C 75.257812 443.429688 78.75 446.386719 82.363281 449.125 C 83.484375 449.972656 85.519531 450.132812 86.996094 449.855469 C 88.699219 449.535156 90.3125 448.496094 91.847656 447.570312 C 93.664062 446.472656 95.324219 445.121094 97.109375 443.964844 C 98.648438 442.964844 100.261719 442.082031 101.570312 441.308594 C 99.175781 439.046875 96.851562 436.773438 94.433594 434.609375 C 92.910156 433.242188 91.296875 431.960938 89.617188 430.792969 C 88.921875 430.304688 87.953125 430.210938 86.597656 429.773438 Z M 86.597656 429.773438 " fill-opacity="1" fill-rule="nonzero"/><path fill="#ffffff" d="M 593.574219 504.585938 C 590.863281 506.261719 588.449219 507.636719 585.558594 507.992188 C 582.910156 508.316406 580.269531 508.960938 577.617188 509 C 573 509.0625 568.363281 508.933594 563.757812 508.574219 C 560.253906 508.296875 556.78125 507.578125 553.3125 506.96875 C 552.230469 506.777344 551.207031 506.28125 550.144531 505.957031 C 548.347656 505.402344 546.476562 505.027344 544.75 504.308594 C 539.773438 502.25 534.855469 500.054688 529.90625 497.921875 C 526.042969 496.257812 522.105469 494.742188 518.332031 492.886719 C 516.78125 492.125 515.484375 490.734375 514.257812 489.453125 C 513.175781 488.320312 512.71875 487.023438 514.117188 485.589844 C 515.441406 484.238281 516.765625 483.847656 518.511719 484.726562 C 520.042969 485.492188 521.488281 486.492188 523.09375 487.039062 C 527.875 488.671875 532.714844 490.132812 537.53125 491.660156 C 537.859375 491.765625 538.25 491.78125 538.515625 491.96875 C 543.804688 495.761719 550.621094 495.71875 556.117188 498.988281 C 556.464844 499.195312 556.933594 499.21875 557.351562 499.300781 C 560.128906 499.820312 562.890625 500.449219 565.6875 500.816406 C 567.722656 501.082031 569.804688 500.933594 571.859375 501.085938 C 574.511719 501.285156 577.15625 501.605469 579.808594 501.859375 C 581.523438 502.027344 583.320312 502.5625 584.941406 502.234375 C 587.425781 501.726562 589.523438 502.757812 591.761719 503.21875 C 592.328125 503.335938 592.789062 503.972656 593.574219 504.585938 Z M 593.574219 504.585938 " fill-opacity="1" fill-rule="nonzero"/><path fill="#ffffff" d="M 671.089844 252.785156 C 668.875 253.429688 667.117188 253.164062 665.277344 251.71875 C 661.589844 248.820312 660.449219 244.554688 658.878906 240.527344 C 658.464844 239.46875 658.777344 238.132812 658.742188 236.921875 C 658.558594 230.683594 658.882812 224.507812 660.863281 218.523438 C 660.996094 218.113281 661.097656 217.679688 661.320312 217.320312 C 663.574219 213.675781 665.808594 210.015625 668.144531 206.425781 C 669.171875 204.847656 671.808594 204.285156 673.292969 205.125 C 674.25 205.667969 674.878906 207.875 674.25 209.398438 C 673.28125 211.757812 671.980469 213.980469 671.066406 216.359375 C 669.871094 219.460938 668.601562 222.585938 667.921875 225.820312 C 666.285156 233.632812 667.804688 241.214844 670.21875 248.675781 C 670.632812 249.957031 670.785156 251.320312 671.089844 252.785156 Z M 671.089844 252.785156 " fill-opacity="1" fill-rule="nonzero"/><path fill="#ffffff" d="M 718.890625 483.535156 C 719.757812 485.105469 719.367188 486.222656 718.320312 487.027344 C 714.980469 489.59375 711.691406 492.25 708.179688 494.570312 C 704.539062 496.976562 700.742188 499.175781 696.867188 501.191406 C 694.695312 502.320312 692.253906 502.972656 689.890625 503.691406 C 687.613281 504.386719 685.074219 504.503906 683.007812 505.566406 C 679.4375 507.402344 675.980469 506.507812 672.441406 506 C 670.140625 505.671875 667.792969 505.523438 665.5625 504.925781 C 664.050781 504.519531 662.585938 503.632812 661.332031 502.660156 C 660.421875 501.953125 660.683594 500.921875 661.851562 500.4375 C 662.320312 500.242188 662.863281 500.0625 663.347656 500.113281 C 670.519531 500.851562 677.320312 498.652344 684.246094 497.480469 C 684.667969 497.410156 685.105469 497.074219 685.484375 497.144531 C 689.054688 497.804688 691.769531 495.695312 694.710938 494.347656 C 698.464844 492.632812 702.195312 490.871094 705.933594 489.113281 C 709.730469 487.328125 713.515625 485.511719 717.324219 483.746094 C 717.761719 483.546875 718.320312 483.605469 718.890625 483.535156 Z M 718.890625 483.535156 " fill-opacity="1" fill-rule="nonzero"/><path fill="#ffffff" d="M 713.195312 341.539062 C 711.5625 339.464844 709.921875 337.390625 708.292969 335.308594 C 708.1875 335.175781 708.089844 335.007812 708.066406 334.847656 C 707.308594 328.808594 702.949219 324.433594 700.71875 319.066406 C 700.003906 317.351562 698.179688 316.128906 697.214844 314.476562 C 695.652344 311.8125 694.039062 309.09375 693.066406 306.191406 C 691.605469 301.839844 692.242188 297.320312 693.1875 292.902344 C 693.527344 291.3125 694.128906 289.777344 694.421875 288.183594 C 694.675781 286.777344 695.578125 286.273438 696.761719 286.214844 C 698.207031 286.144531 698.378906 287.402344 698.453125 288.390625 C 698.597656 290.339844 698.410156 292.320312 698.613281 294.261719 C 699.03125 298.171875 699.578125 302.070312 700.171875 305.960938 C 700.28125 306.6875 700.71875 307.492188 701.25 308.007812 C 704.582031 311.226562 705.914062 315.777344 708.863281 319.265625 C 711.660156 322.574219 713.382812 326.425781 714.488281 330.699219 C 715.167969 333.332031 715.953125 335.800781 715.226562 338.476562 C 714.945312 339.503906 714.4375 340.464844 714.035156 341.460938 C 713.753906 341.484375 713.476562 341.511719 713.195312 341.539062 Z M 713.195312 341.539062 " fill-opacity="1" fill-rule="nonzero"/><path fill="#ffffff" d="M 701.921875 451.355469 C 702.253906 445.996094 702.398438 440.222656 705.582031 435.277344 C 706.902344 433.226562 708.859375 431.558594 710.644531 429.835938 C 712.117188 428.414062 713.652344 427.003906 715.359375 425.894531 C 717.457031 424.535156 719.714844 423.203125 722.410156 424.058594 C 725.496094 425.035156 726.199219 427.929688 723.949219 430.28125 C 723.417969 430.835938 722.804688 431.4375 722.113281 431.691406 C 718.96875 432.824219 717.011719 435.453125 714.597656 437.496094 C 714.078125 437.9375 713.574219 438.488281 713.292969 439.097656 C 710.828125 444.453125 707.296875 449.390625 706.851562 455.554688 C 706.804688 456.238281 706.261719 456.890625 705.949219 457.554688 C 705.234375 457.183594 704.414062 456.933594 703.820312 456.421875 C 702.390625 455.183594 701.410156 453.675781 701.921875 451.355469 Z M 701.921875 451.355469 " fill-opacity="1" fill-rule="nonzero"/><path fill="#ffffff" d="M 726.183594 264.179688 C 726.183594 266.019531 726.472656 267.964844 726.125 269.78125 C 725.207031 274.59375 725.152344 279.328125 726.539062 284.042969 C 726.871094 285.160156 727.277344 286.574219 725.960938 286.957031 C 724.90625 287.265625 723.339844 286.976562 722.414062 286.34375 C 720.273438 284.882812 718.914062 282.550781 718.558594 280.074219 C 717.851562 275.140625 718.09375 270.222656 720.835938 265.777344 C 722.078125 263.765625 723.761719 263.25 726.183594 264.179688 Z M 726.183594 264.179688 " fill-opacity="1" fill-rule="nonzero"/><path fill="#ffffff" d="M 609.117188 252.328125 C 608.800781 252.261719 608.378906 252.1875 607.960938 252.078125 C 606.359375 251.660156 604.609375 250.039062 604.546875 248.933594 C 604.484375 247.769531 606.003906 246.253906 607.816406 245.699219 C 609.625 245.148438 611.414062 244.503906 613.257812 244.140625 C 614.058594 243.984375 615.214844 244.171875 615.773438 244.679688 C 616.175781 245.046875 616.070312 246.285156 615.8125 247 C 614.730469 250.035156 611.691406 252.417969 609.117188 252.328125 Z M 609.117188 252.328125 " fill-opacity="1" fill-rule="nonzero"/><path fill="#ffffff" d="M 617.445312 235.988281 C 615.113281 236.023438 614.027344 234.4375 612.996094 232.957031 C 612.761719 232.621094 613.046875 231.59375 613.425781 231.210938 C 615.800781 228.800781 619.765625 230.214844 620.847656 232.65625 C 621.078125 233.171875 620.832031 234.292969 620.40625 234.621094 C 619.566406 235.265625 618.449219 235.554688 617.445312 235.988281 Z M 617.445312 235.988281 " fill-opacity="1" fill-rule="nonzero"/><path fill="#ffffff" d="M 608.371094 239.484375 C 607.535156 240.035156 606.484375 241.121094 605.238281 241.445312 C 603.894531 241.792969 601.917969 239.84375 601.996094 238.710938 C 602.089844 237.335938 603.726562 235.878906 605.019531 236.019531 C 606.425781 236.171875 608.453125 237.886719 608.371094 239.484375 Z M 608.371094 239.484375 " fill-opacity="1" fill-rule="nonzero"/></svg>