<svg xmlns="http://www.w3.org/2000/svg" xmlns:xlink="http://www.w3.org/1999/xlink" width="1024" zoomAndPan="magnify" viewBox="0 0 768 767.999994" height="1024" preserveAspectRatio="xMidYMid meet" version="1.0"><path fill="#ffffff" d="M 648.167969 15.5625 C 647.964844 15.617188 647.746094 15.671875 647.542969 15.710938 C 645.34375 16.257812 643.128906 16.808594 640.910156 17.394531 C 640.492188 17.503906 640.070312 17.597656 639.648438 17.707031 C 637.121094 18.367188 634.554688 19.0625 631.972656 19.757812 C 637.632812 48.539062 651.519531 74.59375 672.460938 95.53125 C 693.402344 116.453125 719.453125 130.359375 748.234375 136.019531 C 748.253906 135.949219 748.273438 135.875 748.289062 135.800781 C 748.308594 135.710938 748.328125 135.636719 748.363281 135.546875 C 749.003906 133.199219 749.625 130.875 750.234375 128.566406 C 750.398438 127.90625 750.5625 127.265625 750.730469 126.605469 C 751.207031 124.789062 751.664062 122.976562 752.101562 121.183594 C 752.246094 120.558594 752.414062 119.917969 752.5625 119.292969 C 753.714844 114.585938 754.777344 109.96875 755.746094 105.445312 C 755.875 104.875 756.003906 104.308594 756.113281 103.742188 C 756.5 102 756.847656 100.277344 757.195312 98.59375 C 757.324219 97.988281 757.453125 97.382812 757.5625 96.777344 C 757.964844 94.761719 758.367188 92.785156 758.734375 90.804688 C 758.773438 90.640625 758.808594 90.476562 758.84375 90.3125 C 759.25 88.132812 759.632812 85.988281 760.019531 83.863281 C 760.089844 83.386719 760.183594 82.929688 760.257812 82.453125 C 760.550781 80.804688 760.824219 79.171875 761.097656 77.558594 C 761.191406 77.011719 761.285156 76.460938 761.375 75.910156 C 761.648438 74.171875 761.921875 72.46875 762.179688 70.761719 C 762.214844 70.488281 762.269531 70.195312 762.304688 69.921875 C 762.597656 67.921875 762.890625 65.964844 763.167969 64.019531 C 763.222656 63.65625 763.261719 63.289062 763.3125 62.921875 C 763.535156 61.382812 763.734375 59.84375 763.9375 58.34375 C 763.992188 57.847656 764.066406 57.351562 764.121094 56.859375 C 764.304688 55.355469 764.488281 53.871094 764.671875 52.40625 C 764.710938 52.078125 764.746094 51.746094 764.78125 51.417969 C 765.003906 49.621094 765.1875 47.863281 765.367188 46.140625 C 765.40625 45.902344 765.421875 45.664062 765.441406 45.425781 C 765.605469 43.960938 765.734375 42.53125 765.878906 41.121094 C 765.917969 40.679688 765.953125 40.257812 765.992188 39.839844 C 766.117188 38.539062 766.230469 37.273438 766.339844 36.007812 C 766.375 35.679688 766.394531 35.351562 766.429688 35.019531 C 766.558594 33.460938 766.6875 31.921875 766.796875 30.441406 C 766.796875 30.3125 766.796875 30.203125 766.816406 30.074219 C 766.90625 28.734375 767 27.417969 767.089844 26.132812 C 767.109375 25.769531 767.125 25.402344 767.164062 25.035156 C 767.21875 23.953125 767.292969 22.910156 767.347656 21.882812 C 767.363281 21.574219 767.382812 21.242188 767.402344 20.914062 C 767.53125 18.3125 767.640625 15.855469 767.730469 13.585938 C 767.730469 13.273438 767.75 12.960938 767.769531 12.667969 C 767.789062 11.824219 767.804688 11 767.84375 10.195312 C 767.84375 9.902344 767.859375 9.609375 767.859375 9.335938 C 767.878906 8.382812 767.898438 7.484375 767.914062 6.605469 L 767.914062 6.347656 C 767.933594 5.414062 767.953125 4.535156 767.953125 3.691406 C 767.953125 3.417969 767.972656 3.140625 767.972656 2.867188 L 767.972656 0.046875 C 750.15625 0.0078125 705.492188 1.566406 648.167969 15.5625 Z M 648.167969 15.5625 " fill-opacity="1" fill-rule="nonzero"/><path fill="#ffffff" d="M 301.007812 580.296875 L 178.773438 458.078125 L 165.015625 471.820312 L 186.707031 493.511719 C 186.707031 493.511719 186.707031 493.511719 186.722656 493.511719 L 274.460938 581.265625 C 274.460938 581.265625 274.480469 581.265625 274.480469 581.285156 L 296.152344 602.957031 L 309.914062 589.199219 L 301.027344 580.3125 C 301.007812 580.316406 301.007812 580.296875 301.007812 580.296875 Z M 301.007812 580.296875 " fill-opacity="1" fill-rule="nonzero"/><path fill="#ffffff" d="M 208.839844 394.855469 C 232.507812 337.273438 261.199219 284.691406 294.265625 238.230469 C 263.582031 235.410156 215.414062 236.96875 163.859375 261.554688 C 94.867188 294.457031 39.847656 358.507812 0.0351562 452.128906 C 43.695312 422.371094 133.890625 371.128906 208.839844 394.855469 Z M 208.839844 394.855469 " fill-opacity="1" fill-rule="nonzero"/><path fill="#ffffff" d="M 180.242188 512.941406 L 255.042969 587.746094 L 226.609375 616.179688 L 151.808594 541.375 Z M 180.242188 512.941406 " fill-opacity="1" fill-rule="nonzero"/><path fill="#ffffff" d="M 373.136719 559.152344 C 396.863281 634.085938 345.617188 724.277344 315.867188 767.953125 C 409.484375 728.144531 473.535156 673.125 506.4375 604.132812 C 531.023438 552.578125 532.582031 504.394531 529.761719 473.726562 C 483.296875 506.792969 430.699219 535.484375 373.136719 559.152344 Z M 373.136719 559.152344 " fill-opacity="1" fill-rule="nonzero"/><path fill="#ffffff" d="M 614.363281 24.925781 C 530.050781 51.085938 413.496094 108.90625 318.136719 236.546875 C 280.527344 286.910156 248.355469 345.207031 222.503906 409.824219 C 216.292969 425.359375 210.359375 441.609375 204.753906 458.136719 L 309.859375 563.242188 C 326.4375 557.632812 342.671875 551.679688 358.152344 545.488281 C 358.167969 545.488281 358.167969 545.488281 358.167969 545.488281 C 422.789062 519.65625 481.082031 487.46875 531.445312 449.855469 C 659.085938 354.496094 716.90625 237.941406 743.066406 153.628906 C 711.371094 147.089844 682.648438 131.625 659.507812 108.488281 C 636.367188 85.347656 620.90625 56.621094 614.363281 24.925781 Z M 513.875 317.542969 C 478.902344 317.542969 450.449219 289.089844 450.449219 254.117188 C 450.449219 219.140625 478.902344 190.671875 513.875 190.671875 C 548.851562 190.671875 577.320312 219.140625 577.320312 254.117188 C 577.320312 289.089844 548.851562 317.542969 513.875 317.542969 Z M 513.875 317.542969 " fill-opacity="1" fill-rule="nonzero"/><path fill="#ffffff" d="M 154.4375 613.554688 C 150.859375 609.980469 145.0625 609.976562 141.484375 613.554688 L 27.015625 728.019531 C 23.4375 731.597656 23.4375 737.398438 27.015625 740.972656 C 28.804688 742.761719 31.148438 743.65625 33.492188 743.65625 C 35.835938 743.65625 38.183594 742.761719 39.96875 740.972656 L 154.4375 626.507812 C 158.015625 622.933594 158.015625 617.132812 154.4375 613.554688 Z M 154.4375 613.554688 " fill-opacity="1" fill-rule="nonzero"/><path fill="#ffffff" d="M 198.355469 657.476562 C 194.78125 653.902344 188.984375 653.902344 185.402344 657.476562 L 110.65625 732.222656 C 107.078125 735.800781 107.078125 741.601562 110.65625 745.175781 C 112.445312 746.964844 114.789062 747.859375 117.132812 747.859375 C 119.476562 747.859375 121.824219 746.964844 123.609375 745.175781 L 198.355469 670.429688 C 201.933594 666.855469 201.933594 661.054688 198.355469 657.476562 Z M 198.355469 657.476562 " fill-opacity="1" fill-rule="nonzero"/><path fill="#ffffff" d="M 266.007812 664.714844 L 187.671875 743.054688 C 184.097656 746.628906 184.097656 752.429688 187.671875 756.003906 C 189.460938 757.796875 191.804688 758.691406 194.152344 758.691406 C 196.492188 758.691406 198.839844 757.796875 200.628906 756.003906 L 278.964844 677.667969 C 282.539062 674.09375 282.539062 668.292969 278.964844 664.714844 C 275.386719 661.136719 269.585938 661.136719 266.007812 664.714844 Z M 266.007812 664.714844 " fill-opacity="1" fill-rule="nonzero"/><path fill="#ffffff" d="M 103.277344 501.980469 C 106.851562 498.40625 106.851562 492.605469 103.277344 489.027344 C 99.699219 485.449219 93.902344 485.449219 90.324219 489.027344 L 11.984375 567.367188 C 8.410156 570.941406 8.410156 576.742188 11.984375 580.316406 C 13.773438 582.109375 16.117188 583.003906 18.464844 583.003906 C 20.808594 583.003906 23.152344 582.109375 24.941406 580.316406 Z M 103.277344 501.980469 " fill-opacity="1" fill-rule="nonzero"/><path fill="#ffffff" d="M 35.769531 657.332031 L 110.511719 582.585938 C 114.089844 579.007812 114.089844 573.207031 110.511719 569.628906 C 106.9375 566.054688 101.136719 566.054688 97.558594 569.632812 L 22.816406 644.378906 C 19.238281 647.957031 19.238281 653.757812 22.816406 657.332031 C 24.605469 659.121094 26.949219 660.015625 29.292969 660.015625 C 31.636719 660.015625 33.980469 659.121094 35.769531 657.332031 Z M 35.769531 657.332031 " fill-opacity="1" fill-rule="nonzero"/></svg>